<?xml version="1.0" encoding="UTF-8"?>
<svg version="1.1" xmlns="http://www.w3.org/2000/svg" width="1347" height="599">
<path d="M0 0 C444.51 0 889.02 0 1347 0 C1347 197.67 1347 395.34 1347 599 C902.49 599 457.98 599 0 599 C0 401.33 0 203.66 0 0 Z " fill="#FEFEFE" transform="translate(0,0)"/>
<path d="M0 0 C19.95709147 16.77109347 34.40527421 37.52908995 37 64 C38.79080927 87.50376503 33.12875364 112.16621009 17.80078125 130.65234375 C15.58071274 133.1512969 13.31547178 135.5894902 11 138 C10.154375 138.886875 9.30875 139.77375 8.4375 140.6875 C7.633125 141.450625 6.82875 142.21375 6 143 C5.4534375 143.52980469 4.906875 144.05960938 4.34375 144.60546875 C-8.21822257 156.26648017 -26.68472943 165 -44 165 C-44 144.21 -44 123.42 -44 102 C-36.08 102 -28.16 102 -20 102 C-19.5978125 99.2465625 -19.5978125 99.2465625 -19.1875 96.4375 C-18.03359041 88.89973089 -16.53551706 81.46819663 -15 74 C-24.57 74 -34.14 74 -44 74 C-44.0825 70.82375 -44.165 67.6475 -44.25 64.375 C-44.28641602 63.3854834 -44.32283203 62.3959668 -44.36035156 61.37646484 C-44.4305768 55.77317028 -44.04274634 52.23344192 -40 48 C-34.29726153 43.82730462 -28.86912295 43.47783629 -22 43.75 C-17.545 43.87375 -17.545 43.87375 -13 44 C-13 35.42 -13 26.84 -13 18 C-40.45918716 15.13648436 -40.45918716 15.13648436 -65 26 C-75.66055377 36.13870848 -77.2175999 48.4817342 -77.625 62.5625 C-77.66367187 63.66658203 -77.70234375 64.77066406 -77.7421875 65.90820312 C-77.8355907 68.60522054 -77.91884266 71.30258631 -78 74 C-84.27 74 -90.54 74 -97 74 C-97 83.24 -97 92.48 -97 102 C-90.73 102 -84.46 102 -78 102 C-78 122.46 -78 142.92 -78 164 C-103.84951736 156.24514479 -123.94274334 142.39899139 -138 119 C-140.55688871 114.17800723 -142.32566583 109.18451384 -144 104 C-144.41121094 102.85144531 -144.82242188 101.70289063 -145.24609375 100.51953125 C-152.21137212 78.03300973 -149.57649016 52.21063295 -138.81567383 31.42089844 C-134.70390507 23.96436908 -129.72262053 17.30764679 -124 11 C-123.17628906 10.05447266 -123.17628906 10.05447266 -122.3359375 9.08984375 C-91.41766475 -24.34149058 -35.61494403 -26.96035528 0 0 Z " fill="#0B66FC" transform="translate(725,108)"/>
<path d="M0 0 C0.71421382 -0.00311998 1.42842763 -0.00623996 2.16428429 -0.00945449 C4.56957159 -0.01746388 6.97460866 -0.0110995 9.37989807 -0.00482178 C11.09944304 -0.00753036 12.81898685 -0.01109055 14.53852844 -0.01544189 C19.21824303 -0.02458463 23.89786975 -0.02101373 28.57758594 -0.01468372 C33.46758947 -0.00963264 38.3575853 -0.01431276 43.24758911 -0.01745605 C51.46179052 -0.02109865 59.67595602 -0.01628927 67.89015198 -0.0067749 C77.39456228 0.00410659 86.89888676 0.00058747 96.40329498 -0.01042771 C104.55364068 -0.01949655 112.70396051 -0.02078774 120.85430962 -0.01555037 C125.72643921 -0.01242798 130.59852843 -0.01202863 135.47065544 -0.01862335 C140.05148215 -0.02439019 144.63219799 -0.02041207 149.2130127 -0.00883484 C150.89687478 -0.00618455 152.58074615 -0.00695961 154.26460457 -0.01136017 C156.55820328 -0.01680266 158.85144381 -0.00999745 161.14501953 0 C162.43016669 0.00075405 163.71531385 0.0015081 165.03940487 0.002285 C168.13600159 0.25396729 168.13600159 0.25396729 171.13600159 2.25396729 C171.42761961 5.19863999 171.53183433 7.92964072 171.49928284 10.87506104 C171.50003059 12.15861229 171.50003059 12.15861229 171.50079346 13.46809387 C171.49845079 15.27963581 171.48871093 17.09118087 171.47218323 18.90264893 C171.44862484 21.67695223 171.45161639 24.45029276 171.45826721 27.22467041 C171.45268941 28.98313969 171.44557889 30.74160491 171.43678284 32.50006104 C171.43769424 33.33138046 171.43860565 34.16269989 171.43954468 35.01921082 C171.39135024 38.93324566 171.3550089 40.92545631 169.13600159 44.25396729 C166.14683533 44.63149071 166.14683533 44.63149071 162.22731018 44.63491821 C161.50830725 44.63959818 160.78930431 44.64427816 160.04851341 44.64909995 C157.62697048 44.66111472 155.20598673 44.65156784 152.78443909 44.64215088 C151.05341764 44.64621372 149.32239879 44.65155397 147.59138489 44.65808105 C142.88071118 44.67179476 138.17023387 44.66643935 133.45955658 44.6569438 C128.53838558 44.64936814 123.61723181 44.65638697 118.69606018 44.66110229 C110.43056711 44.66656597 102.16515435 44.65935221 93.89967346 44.64508057 C84.33272299 44.62875288 74.7659643 44.63404096 65.19901848 44.65055978 C56.99687491 44.66415724 48.79478921 44.66610285 40.59263802 44.65824378 C35.68866455 44.65355766 30.78478133 44.65296806 25.8808136 44.66285324 C21.27121213 44.67149538 16.6618588 44.66555166 12.05228424 44.64817047 C10.35671654 44.64419085 8.66112809 44.64536474 6.96556854 44.65195847 C4.65832446 44.66010622 2.35188521 44.64993567 0.04469299 44.63491821 C-1.24875031 44.63378714 -2.5421936 44.63265606 -3.87483215 44.63149071 C-4.86125702 44.50690798 -5.84768188 44.38232525 -6.86399841 44.25396729 C-9.46970222 40.34541158 -9.15170009 37.03332991 -9.12962341 32.50006104 C-9.13153687 31.64340347 -9.13345032 30.78674591 -9.13542175 29.90412903 C-9.13678214 28.09438788 -9.13309588 26.28463692 -9.1247406 24.47491455 C-9.11402582 21.69856979 -9.12464746 18.92287019 -9.13743591 16.14654541 C-9.13611455 14.38938252 -9.13355264 12.63222003 -9.12962341 10.87506104 C-9.13367188 10.04171738 -9.13772034 9.20837372 -9.14189148 8.34977722 C-9.07870558 0.62257589 -7.43225225 0.0043621 0 0 Z " fill="#1976D2" transform="translate(583.8639984130859,526.7460327148438)"/>
<path d="M0 0 C0.33 4.95 0.66 9.9 1 15 C2.32 14.34 3.64 13.68 5 13 C8.93429482 12.48683111 10.67516615 12.82165985 14.1875 14.75 C18.26483554 18.01186843 20.03484276 20.09069441 20.9375 25.25 C21.34821724 30.3294826 19.99494953 33.92380671 17 38 C13.34972756 41.33739194 9.82260119 41.34993924 5.0859375 41.3984375 C2.53103964 40.9104233 1.63574238 39.9691421 0 38 C-0.33 38.99 -0.66 39.98 -1 41 C-3.31 41 -5.62 41 -8 41 C-8 27.8 -8 14.6 -8 1 C-3 0 -3 0 0 0 Z " fill="#106BFF" transform="translate(678,320)"/>
<path d="M0 0 C2.875 1.5 2.875 1.5 5 3 C5.33 2.34 5.66 1.68 6 1 C8.31 1 10.62 1 13 1 C13 9.91 13 18.82 13 28 C10.69 28 8.38 28 6 28 C5.67 27.34 5.34 26.68 5 26 C4.01 26.66 3.02 27.32 2 28 C-2.79689791 28.69920885 -6.77459282 28.71482085 -11 26.25 C-15.25391669 21.46434373 -15.54141103 17.26697489 -15.45703125 10.9921875 C-14.76486485 6.46056818 -12.62279982 3.72371081 -9 1 C-5.69407756 -0.10197415 -3.46771262 -0.27741701 0 0 Z " fill="#106CFF" transform="translate(596,333)"/>
<path d="M0 0 C5.12376615 1.80838805 8.10548047 4.40282192 11 9 C11.84339438 13.43975531 11.3195715 17.05903947 9.875 21.3125 C7.48336877 24.74050477 5.81978202 26.22652978 2 28 C-3.32533427 28.77661125 -7.59075444 28.65429258 -12.5 26.375 C-16.36274116 22.7053959 -18.12364837 19.30510501 -18.4375 14 C-18.25027669 9.73456459 -16.81006484 7.25375928 -14 4 C-9.4419324 0.06348707 -5.82193413 -0.94504342 0 0 Z " fill="#116CFF" transform="translate(719,333)"/>
<path d="M0 0 C3.48280592 1.9506413 5.39781956 3.42498122 6.75 7.3125 C7.4184248 12.36376081 7.32847183 16.13413146 5.0625 20.75 C1.91506398 24.23769938 -0.0468803 26.07324718 -4.83984375 26.59375 C-8.89323628 26.72432909 -12.33342764 26.62452463 -16.1875 25.3125 C-20.18783413 21.43338811 -21.99394313 17.1689123 -22.75 11.6875 C-22.01893046 6.75278059 -19.90061781 3.76304292 -16.1875 0.5 C-10.91445515 -2.7318662 -5.50068117 -2.51228164 0 0 Z " fill="#116CFF" transform="translate(754.25,334.6875)"/>
<path d="M0 0 C3.82158012 2.43191462 5.32820787 4.48462362 6.75 8.75 C6.75 11.06 6.75 13.37 6.75 15.75 C0.48 15.75 -5.79 15.75 -12.25 15.75 C-11.26 17.07 -10.27 18.39 -9.25 19.75 C-5.30400352 20.06822552 -2.22141892 19.96117803 1.625 19.125 C2.32625 19.00125 3.0275 18.8775 3.75 18.75 C4.41 19.41 5.07 20.07 5.75 20.75 C5.6875 22.75 5.6875 22.75 4.75 24.75 C-0.46972061 27.34148101 -5.53967564 27.42081637 -11.25 26.75 C-15.06978202 24.97652978 -16.73336877 23.49050477 -19.125 20.0625 C-21.05286147 14.38601901 -21.24911884 9.82509298 -18.625 4.375 C-13.33148308 -1.47572923 -7.37911861 -2.83812254 0 0 Z " fill="#116CFF" transform="translate(659.25,334.25)"/>
<path d="M0 0 C0.33 7.92 0.66 15.84 1 24 C2.32 22.35 3.64 20.7 5 19 C9.26010396 14.20653912 9.26010396 14.20653912 12.37890625 13.3359375 C14.5625 13.375 14.5625 13.375 18 14 C15.2520787 18.27454425 12.30749011 22.14126153 9 26 C13.1069129 31.71723534 13.1069129 31.71723534 17.875 36.875 C18.57625 37.57625 19.2775 38.2775 20 39 C20 39.66 20 40.32 20 41 C16.4461165 41.56410849 14.42298422 41.86345548 11 41 C7.46737189 38.07205598 4.61276617 34.76781883 2 31 C2 30.34 2 29.68 2 29 C1.34 29 0.68 29 0 29 C0 32.96 0 36.92 0 41 C-2.31 41 -4.62 41 -7 41 C-7 27.8 -7 14.6 -7 1 C-3 0 -3 0 0 0 Z " fill="#0E6AFF" transform="translate(772,320)"/>
<path d="M0 0 C0 1.98 0 3.96 0 6 C-1.98 6.66 -3.96 7.32 -6 8 C-6.33 9.65 -6.66 11.3 -7 13 C-4.69 13 -2.38 13 0 13 C-0.33 14.98 -0.66 16.96 -1 19 C-2.98 19 -4.96 19 -7 19 C-7 25.93 -7 32.86 -7 40 C-9.64 40 -12.28 40 -15 40 C-15 33.4 -15 26.8 -15 20 C-16.32 20 -17.64 20 -19 20 C-19 17.69 -19 15.38 -19 13 C-17.68 13 -16.36 13 -15 13 C-15.103125 11.96875 -15.20625 10.9375 -15.3125 9.875 C-15.00287979 6.03570943 -14.40062382 3.95644255 -11.77734375 1.08984375 C-8.20487565 -1.10074658 -4.02487756 -0.422026 0 0 Z " fill="#136DFF" transform="translate(580,321)"/>
<path d="M0 0 C1.010625 0.495 2.02125 0.99 3.0625 1.5 C1.3125 6.375 1.3125 6.375 -0.9375 7.5 C-1.5975 7.17 -2.2575 6.84 -2.9375 6.5 C-6.4375 6.25 -6.4375 6.25 -9.9375 6.5 C-12.18074836 8.31193006 -12.18074836 8.31193006 -12.1328125 10.8828125 C-12.10960937 11.78773438 -12.08640625 12.69265625 -12.0625 13.625 C-12.03542969 14.99011719 -12.03542969 14.99011719 -12.0078125 16.3828125 C-11.98460937 17.08148438 -11.96140625 17.78015625 -11.9375 18.5 C-5.25218008 19.67287572 -5.25218008 19.67287572 1.0625 17.5 C3.0625 20.5 3.0625 20.5 2.9375 22.5625 C1.76455102 25.15974417 0.68388739 25.45234432 -1.9375 26.5 C-6.52127901 27.23003525 -11.02615772 27.55740925 -15.17578125 25.26171875 C-18.77056816 22.26234168 -20.66826996 20.06430582 -21.17578125 15.23046875 C-21.34391304 9.46974263 -21.03482115 5.92079387 -16.9375 1.5 C-11.3394216 -2.23205226 -6.15244202 -2.60486456 0 0 Z " fill="#126CFF" transform="translate(633.9375,334.5)"/>
<path d="M0 0 C0.33 0 0.66 0 1 0 C1.0093457 1.13018555 1.01869141 2.26037109 1.02832031 3.42480469 C1.06822392 7.62214421 1.13398326 11.81875104 1.20751953 16.015625 C1.2357271 17.83128439 1.25694274 19.64706652 1.27099609 21.46289062 C1.29242909 24.07485789 1.33907885 26.68534974 1.390625 29.296875 C1.39185364 30.10743347 1.39308228 30.91799194 1.39434814 31.75311279 C1.48140535 35.11063978 1.60116496 37.44589478 3.59357071 40.21396255 C6.86182782 42.63964346 8.99683648 42.50723721 13.04876709 42.51898193 C13.75863935 42.52648319 14.46851161 42.53398444 15.19989514 42.541713 C17.57854722 42.56201298 19.95624815 42.55388351 22.33496094 42.54589844 C24.03997237 42.55463224 25.74497561 42.56511735 27.44996643 42.57722473 C32.07981219 42.60512908 36.70939109 42.60848844 41.33930874 42.60750484 C46.17737774 42.61063014 51.01532588 42.63624034 55.85333252 42.65948486 C65.01530843 42.7000778 74.17721311 42.72039331 83.33926511 42.73345876 C93.76969499 42.74931765 104.20000346 42.78772858 114.63036299 42.82805204 C136.08686864 42.91049606 157.54336863 42.96456004 179 43 C179 43.33 179 43.66 179 44 C156.25193896 44.0700355 133.50389567 44.1229614 110.75574875 44.15543652 C100.19373728 44.17091507 89.63179274 44.19202349 79.06982422 44.22631836 C69.86558941 44.25619044 60.66140307 44.27556781 51.45712113 44.28226548 C46.58208865 44.28618146 41.70719483 44.29540506 36.83220673 44.31719017 C32.24564716 44.33752071 27.65928368 44.34384076 23.07268333 44.33932304 C21.38761772 44.34014978 19.7025457 44.34613587 18.017519 44.35761642 C15.7196686 44.3725071 13.42256186 44.36896653 11.12469482 44.36076355 C9.83787182 44.36352893 8.55104881 44.36629431 7.22523117 44.36914349 C3.79886969 43.97697965 2.42293023 43.39711535 0 41 C-1.58356341 37.36009767 -1.14390635 33.18853379 -1.1328125 29.27734375 C-1.13424759 28.16450768 -1.13424759 28.16450768 -1.13571167 27.02919006 C-1.1363906 25.46501582 -1.13455638 23.90083872 -1.13037109 22.33666992 C-1.12501115 19.94248134 -1.13032968 17.5484797 -1.13671875 15.15429688 C-1.13605807 13.63281209 -1.13477711 12.11132741 -1.1328125 10.58984375 C-1.13483673 9.87416733 -1.13686096 9.15849091 -1.13894653 8.42112732 C-1.12438927 5.33817275 -0.98286033 2.94858098 0 0 Z " fill="#E9E9E9" transform="translate(574,530)"/>
<path d="M0 0 C2.375 1.625 2.375 1.625 4 4 C4.64850195 7.80994895 4.28071139 9.50335677 2.375 12.875 C0 15 0 15 -3.0625 15.5625 C-6 15 -6 15 -7.875 13.5 C-9.56377991 9.74715576 -9.39174433 7.11331542 -9 3 C-6.89524812 -0.74178112 -4.00297686 -0.57185384 0 0 Z " fill="#F3F7FF" transform="translate(687,340)"/>
<path d="M0 0 C1.875 1 1.875 1 3 3 C3.76325088 9.86925795 3.76325088 9.86925795 1.3125 13.5 C-1 15 -1 15 -3.5 15.5625 C-6 15 -6 15 -8.3125 12.875 C-10.29284835 9.50107319 -10.65454929 7.84547708 -10 4 C-7.21052575 -0.0769239 -4.82207542 -0.71818145 0 0 Z " fill="#F4F8FF" transform="translate(750,340)"/>
<path d="M0 0 C2 1.4375 2 1.4375 3 4 C3.07700766 7.09680819 2.90600785 10.02967046 2 13 C-1.24826674 15.16551116 -2.23094157 15.55156953 -6 15 C-8.3125 13.5 -8.3125 13.5 -10 11 C-10.63857688 7.47363655 -10.65841319 4.23936601 -8.9375 1 C-5.83132725 -0.60318593 -3.42009021 -0.42751128 0 0 Z " fill="#F4F8FF" transform="translate(719,340)"/>
<path d="M0 0 C2.14292806 1.6034144 2.9018223 2.51176497 3.43359375 5.15625 C3.44409536 11.45721678 3.44409536 11.45721678 1.3125 14.0625 C-1.48619639 15.19710664 -3.01675911 15.59664818 -6 15 C-8.375 12.9375 -8.375 12.9375 -10 10 C-9.93931504 6.48027215 -9.66225706 4.08052467 -7.8125 1.0625 C-5.08912093 -0.5339636 -3.09046979 -0.38630872 0 0 Z " fill="#F4F8FF" transform="translate(598,340)"/>
<path d="M0 0 C4.29425875 1.07356469 4.74740471 1.5084773 7 5 C7.33 3.35 7.66 1.7 8 0 C8.99 0 9.98 0 11 0 C11 3.96 11 7.92 11 12 C6.70574125 10.92643531 6.25259529 10.4915227 4 7 C3.67 8.65 3.34 10.3 3 12 C2.01 12 1.02 12 0 12 C0 8.04 0 4.08 0 0 Z " fill="#D8EFF9" transform="translate(684,542)"/>
<path d="M0 0 C4 1 4 1 5.75 3.5625 C6.1625 4.366875 6.575 5.17125 7 6 C7.33 4.02 7.66 2.04 8 0 C8.66 0 9.32 0 10 0 C10 3.96 10 7.92 10 12 C9.01 12 8.02 12 7 12 C5.3125 9.5 5.3125 9.5 4 7 C3.67 8.65 3.34 10.3 3 12 C2.01 12 1.02 12 0 12 C0 8.04 0 4.08 0 0 Z " fill="#E1EFF5" transform="translate(662,542)"/>
<path d="M0 0 C0.94875 0.04125 1.8975 0.0825 2.875 0.125 C3.535 1.445 4.195 2.765 4.875 4.125 C3.885 4.125 2.895 4.125 1.875 4.125 C1.875 3.465 1.875 2.805 1.875 2.125 C0.555 2.125 -0.765 2.125 -2.125 2.125 C-1.795 4.435 -1.465 6.745 -1.125 9.125 C-0.135 9.455 0.855 9.785 1.875 10.125 C1.875 9.465 1.875 8.805 1.875 8.125 C1.215 8.125 0.555 8.125 -0.125 8.125 C-0.125 7.465 -0.125 6.805 -0.125 6.125 C1.525 6.125 3.175 6.125 4.875 6.125 C4.917721 7.79111905 4.91563832 9.45882885 4.875 11.125 C3.875 12.125 3.875 12.125 0.4375 12.3125 C-3.125 12.125 -3.125 12.125 -5.125 10.125 C-5.390625 8.25 -5.390625 8.25 -5.375 6.125 C-5.38015625 5.42375 -5.3853125 4.7225 -5.390625 4 C-4.88506733 0.43135764 -3.38047153 0.13521886 0 0 Z " fill="#DCE6F4" transform="translate(655.125,541.875)"/>
<path d="M0 0 C5.94 0 11.88 0 18 0 C16 4 16 4 13.875 4.75 C3.89824561 5.61754386 3.89824561 5.61754386 1 3.625 C0 2 0 2 0 0 Z " fill="#F1F6FF" transform="translate(647,350)"/>
<path d="M0 0 C1.4540625 0.0309375 1.4540625 0.0309375 2.9375 0.0625 C3.2675 1.3825 3.5975 2.7025 3.9375 4.0625 C3.2775 4.0625 2.6175 4.0625 1.9375 4.0625 C1.9375 3.4025 1.9375 2.7425 1.9375 2.0625 C0.6175 2.0625 -0.7025 2.0625 -2.0625 2.0625 C-0.68558038 4.81633923 1.30470042 5.57733101 3.9375 7.0625 C3.6075 8.7125 3.2775 10.3625 2.9375 12.0625 C0.9575 12.0625 -1.0225 12.0625 -3.0625 12.0625 C-3.7225 10.7425 -4.3825 9.4225 -5.0625 8.0625 C-2.7525 8.7225 -0.4425 9.3825 1.9375 10.0625 C0.43086217 7.04922434 -2.09416411 6.45193382 -5.0625 5.0625 C-3.9375 0.08035714 -3.9375 0.08035714 0 0 Z " fill="#EEF3F9" transform="translate(639.0625,541.9375)"/>
<path d="M0 0 C3.625 0.375 3.625 0.375 7 1 C7.66 2.65 8.32 4.3 9 6 C4.71 6 0.42 6 -4 6 C-2 2 -2 2 0 0 Z " fill="#DAE8FF" transform="translate(650,339)"/>
<path d="M0 0 C0.33 0 0.66 0 1 0 C1 6.6 1 13.2 1 20 C-5.27 20 -11.54 20 -18 20 C-18 19.67 -18 19.34 -18 19 C-12.72 18.67 -7.44 18.34 -2 18 C-1.90912109 16.17662109 -1.90912109 16.17662109 -1.81640625 14.31640625 C-1.73201668 12.73175772 -1.6473679 11.14712298 -1.5625 9.5625 C-1.52318359 8.76005859 -1.48386719 7.95761719 -1.44335938 7.13085938 C-1.11328125 1.11328125 -1.11328125 1.11328125 0 0 Z " fill="#3979E2" transform="translate(646,162)"/>
<path d="M0 0 C0.87011719 0.00451172 1.74023438 0.00902344 2.63671875 0.01367188 C4.75784293 0.0253264 6.8789311 0.04325643 9 0.0625 C9 0.3925 9 0.7225 9 1.0625 C4.80168355 1.51700014 0.60252201 1.96229358 -3.59765625 2.39916992 C-5.02565662 2.54899982 -6.45339807 2.70131966 -7.88085938 2.85620117 C-9.93556331 3.07869871 -11.99103931 3.29215436 -14.046875 3.50390625 C-15.28276367 3.63482666 -16.51865234 3.76574707 -17.79199219 3.90063477 C-20.54918223 4.03975326 -22.41921094 3.94436351 -25 3.0625 C-16.65078334 0.45336979 -8.70169387 -0.08688327 0 0 Z " fill="#397AE1" transform="translate(669,89.9375)"/>
<path d="M0 0 C0.66 0.33 1.32 0.66 2 1 C1.33613281 1.59167969 0.67226563 2.18335937 -0.01171875 2.79296875 C-4.45008781 6.76482311 -8.8532052 10.72361786 -13 15 C-13.66 15.66 -14.32 16.32 -15 17 C-15.99 16.67 -16.98 16.34 -18 16 C-12.33998772 10.13121677 -6.73304432 4.62661705 0 0 Z " fill="#307AE4" transform="translate(616,106)"/>
<path d="M0 0 C0.66 0 1.32 0 2 0 C2 3.96 2 7.92 2 12 C1.01 12 0.02 12 -1 12 C-3.1519437 8.77208445 -3.20086443 7.71599191 -3 4 C-2.34 4.66 -1.68 5.32 -1 6 C-0.67 4.02 -0.34 2.04 0 0 Z " fill="#F2F5F8" transform="translate(670,542)"/>
<path d="M0 0 C0.99 0 1.98 0 3 0 C3 3.96 3 7.92 3 12 C2.01 12 1.02 12 0 12 C0 8.04 0 4.08 0 0 Z " fill="#DCECF6" transform="translate(679,542)"/>
<path d="M0 0 C0.99 0 1.98 0 3 0 C3 3.96 3 7.92 3 12 C2.01 12 1.02 12 0 12 C0 8.04 0 4.08 0 0 Z " fill="#DCECF6" transform="translate(645,542)"/>
<path d="M0 0 C1.4540625 0.0309375 1.4540625 0.0309375 2.9375 0.0625 C3.2675 1.3825 3.5975 2.7025 3.9375 4.0625 C3.2775 4.0625 2.6175 4.0625 1.9375 4.0625 C1.9375 3.4025 1.9375 2.7425 1.9375 2.0625 C0.6175 2.0625 -0.7025 2.0625 -2.0625 2.0625 C-1.7325 3.7125 -1.4025 5.3625 -1.0625 7.0625 C-2.3825 6.4025 -3.7025 5.7425 -5.0625 5.0625 C-3.9375 0.08035714 -3.9375 0.08035714 0 0 Z " fill="#E0EEF8" transform="translate(639.0625,541.9375)"/>
<path d="M0 0 C0.66 0 1.32 0 2 0 C2 3.96 2 7.92 2 12 C0.68 11.67 -0.64 11.34 -2 11 C-2 10.01 -2 9.02 -2 8 C-1.34 8 -0.68 8 0 8 C0 5.36 0 2.72 0 0 Z " fill="#E5E1EC" transform="translate(693,542)"/>
<path d="M0 0 C1.32 0 2.64 0 4 0 C4 0.66 4 1.32 4 2 C4.66 2 5.32 2 6 2 C6.33 1.34 6.66 0.68 7 0 C7.33 0.33 7.66 0.66 8 1 C7.71269945 3.33944736 7.38063221 5.6739143 7 8 C6.5875 7.38125 6.175 6.7625 5.75 6.125 C3.94426121 3.93231719 2.5909466 3.07211583 0 2 C0 1.34 0 0.68 0 0 Z " fill="#3A7DD4" transform="translate(637,544)"/>
<path d="M0 0 C1.65 0 3.3 0 5 0 C5.042721 1.66611905 5.04063832 3.33382885 5 5 C4 6 4 6 0.9375 6.0625 C-0.5165625 6.0315625 -0.5165625 6.0315625 -2 6 C-1.67 5.34 -1.34 4.68 -1 4 C-0.01 4 0.98 4 2 4 C2 3.34 2 2.68 2 2 C1.34 2 0.68 2 0 2 C0 1.34 0 0.68 0 0 Z " fill="#EAEFF7" transform="translate(655,548)"/>
<path d="M0 0 C0.33 0.99 0.66 1.98 1 3 C-0.98 4.98 -2.96 6.96 -5 9 C-5.99 8.67 -6.98 8.34 -8 8 C-6.37660195 6.29115995 -4.70680947 4.62553283 -3 3 C-2.34 3 -1.68 3 -1 3 C-0.67 2.01 -0.34 1.02 0 0 Z " fill="#D1E3F4" transform="translate(736,245)"/>
<path d="M0 0 C0.33 0 0.66 0 1 0 C1.33 2.31 1.66 4.62 2 7 C1.34 7 0.68 7 0 7 C0.226875 7.763125 0.45375 8.52625 0.6875 9.3125 C0.790625 10.199375 0.89375 11.08625 1 12 C-0.48046875 13.66796875 -0.48046875 13.66796875 -2 15 C-1.03644647 4.44191344 -1.03644647 4.44191344 0 0 Z " fill="#337BE5" transform="translate(708,192)"/>
<path d="M0 0 C1.13643966 3.40931897 0.86747764 4.00335456 -0.4375 7.1875 C-0.86869141 8.26064453 -0.86869141 8.26064453 -1.30859375 9.35546875 C-1.53675781 9.89816406 -1.76492188 10.44085938 -2 11 C-2.33 11 -2.66 11 -3 11 C-3.32613618 6.32538149 -2.70582788 3.83325617 0 0 Z " fill="#276FDF" transform="translate(758,204)"/>
</svg>
