<?xml version="1.0" encoding="UTF-8"?>
<svg version="1.1" xmlns="http://www.w3.org/2000/svg" width="1351" height="614">
<path d="M0 0 C445.83 0 891.66 0 1351 0 C1351 202.62 1351 405.24 1351 614 C905.17 614 459.34 614 0 614 C0 411.38 0 208.76 0 0 Z " fill="#FEFEFE" transform="translate(0,0)"/>
<path d="M0 0 C16 0 16 0 20.0625 3.56640625 C21.09808178 5.19728851 22.07519761 6.86634344 23 8.5625 C24.13071227 10.3906236 25.26361905 12.21739125 26.3984375 14.04296875 C26.97432617 15.01024902 27.55021484 15.9775293 28.14355469 16.97412109 C31.39498839 22.27373567 35.03437644 27.30202015 38.625 32.375 C39.95287245 34.27700623 41.2785292 36.18056199 42.6015625 38.0859375 C43.16182129 38.8907959 43.72208008 39.6956543 44.29931641 40.52490234 C46.22742315 43.33098132 48.11143727 46.1671559 50 49 C50.33 32.83 50.66 16.66 51 0 C56.28 0 61.56 0 67 0 C67 25.74 67 51.48 67 78 C51 78 51 78 46.32421875 73.53125 C45.05529134 71.55612388 43.84462707 69.5426348 42.6875 67.5 C42.03072266 66.45223389 41.37394531 65.40446777 40.69726562 64.32495117 C39.37638861 62.21726142 38.07625277 60.09641517 36.79833984 57.96240234 C34.36619336 53.95593133 31.70365797 50.13829437 29 46.3125 C24.58268519 39.93043686 20.30599438 33.45899157 16 27 C15.67 43.83 15.34 60.66 15 78 C10.05 78 5.1 78 0 78 C0 52.26 0 26.52 0 0 Z " fill="#FF6857" transform="translate(84,386)"/>
<path d="M0 0 C15 0 15 0 18.4140625 2.61328125 C19.56835938 4.36694336 19.56835938 4.36694336 20.625 6.3125 C21.04845703 6.97967041 21.47191406 7.64684082 21.90820312 8.33422852 C22.82349123 9.7765358 23.71849351 11.23187994 24.59472656 12.69824219 C26.55604433 15.91076893 28.70392558 18.98026754 30.85302734 22.0690918 C32.40788202 24.30503091 33.94180839 26.55352952 35.46875 28.80859375 C40.2859552 35.89052484 45.147681 42.94208145 50 50 C50.33 33.5 50.66 17 51 0 C55.95 0 60.9 0 66 0 C66 25.74 66 51.48 66 78 C51 78 51 78 47.65625 75.4921875 C46.53271484 73.78466797 46.53271484 73.78466797 45.5 71.875 C44.627845 70.49984723 43.75543311 69.12485736 42.8828125 67.75 C42.2026709 66.61498047 42.2026709 66.61498047 41.50878906 65.45703125 C39.25191099 61.78175278 36.78576834 58.25849382 34.33398438 54.71142578 C32.46372063 52.00345916 30.6153914 49.28196438 28.7734375 46.5546875 C24.5540383 40.34352222 20.27407731 34.17366722 16 28 C15.67 44.5 15.34 61 15 78 C10.05 78 5.1 78 0 78 C0 52.26 0 26.52 0 0 Z " fill="#040404" transform="translate(309,245)"/>
<path d="M0 0 C6.78511064 4.06021021 10.83638909 10.11245625 13.44140625 17.4609375 C14.48850286 26.63010778 14.326567 36.37153153 9.44140625 44.4609375 C3.34839286 51.77255357 -2.9989555 54.95446942 -12.33203125 55.8046875 C-21.68834556 56.283331 -28.99967041 55.11351465 -36.35546875 48.95703125 C-42.30749174 42.84294823 -44.75052248 34.71739162 -44.99609375 26.3359375 C-44.69974792 18.44700712 -42.6224565 11.6196895 -37.55859375 5.4609375 C-27.05421207 -3.91877805 -13.04585268 -5.48275776 0 0 Z " fill="#040404" transform="translate(493.55859375,409.5390625)"/>
<path d="M0 0 C1.79244141 0.01740234 1.79244141 0.01740234 3.62109375 0.03515625 C5.41740234 0.04869141 5.41740234 0.04869141 7.25 0.0625 C8.17683594 0.07410156 9.10367188 0.08570313 10.05859375 0.09765625 C17.03276016 16.74842639 23.85388748 33.45912234 30.57574463 50.21328735 C31.39891115 52.26435718 32.22325585 54.31495454 33.04876709 56.36508179 C34.21706853 59.26801395 35.38070601 62.17277071 36.54296875 65.078125 C36.89865936 65.9602063 37.25434998 66.8422876 37.62081909 67.75109863 C37.94285309 68.55921997 38.26488708 69.36734131 38.59667969 70.19995117 C38.8802533 70.90746017 39.1638269 71.61496918 39.45599365 72.34391785 C40.05859375 74.09765625 40.05859375 74.09765625 40.05859375 76.09765625 C32.63359375 77.08765625 32.63359375 77.08765625 25.05859375 78.09765625 C24.05222825 75.66261116 23.05332962 73.22494761 22.05859375 70.78515625 C21.77242187 70.09486328 21.48625 69.40457031 21.19140625 68.69335938 C19.96948631 65.68219951 19.05859375 63.37878641 19.05859375 60.09765625 C3.71359375 60.59265625 3.71359375 60.59265625 -11.94140625 61.09765625 C-13.92140625 66.70765625 -15.90140625 72.31765625 -17.94140625 78.09765625 C-22.89140625 78.09765625 -27.84140625 78.09765625 -32.94140625 78.09765625 C-32.26040519 74.69265097 -31.66254823 72.07661973 -30.44189453 68.93530273 C-30.13675934 68.14423126 -29.83162415 67.35315979 -29.51724243 66.53811646 C-29.01950821 65.26628006 -29.01950821 65.26628006 -28.51171875 63.96875 C-27.99186905 62.62633743 -27.99186905 62.62633743 -27.46151733 61.25680542 C-26.33385133 58.34800283 -25.20031578 55.44153004 -24.06640625 52.53515625 C-23.29205044 50.5426657 -22.51796285 48.55007089 -21.74414062 46.55737305 C-19.83289176 41.6390716 -17.9164344 36.72281936 -15.99816895 31.80725098 C-14.73617407 28.57143022 -13.47769012 25.33425247 -12.2194519 22.0969696 C-10.96313692 18.8668442 -9.70240362 15.63845679 -8.44140625 12.41015625 C-7.99168457 11.25507568 -7.54196289 10.09999512 -7.07861328 8.90991211 C-6.67239746 7.87487549 -6.26618164 6.83983887 -5.84765625 5.7734375 C-5.50025391 4.88567627 -5.15285156 3.99791504 -4.79492188 3.08325195 C-3.4847904 0.03539746 -3.50275646 0.11629338 0 0 Z " fill="#060606" transform="translate(595.94140625,244.90234375)"/>
<path d="M0 0 C5.61 0 11.22 0 17 0 C19.71292678 6.96101272 21.84227681 14.02305506 23.92578125 21.19335938 C24.30669922 22.48790039 24.30669922 22.48790039 24.6953125 23.80859375 C25.0358667 24.98119751 25.0358667 24.98119751 25.38330078 26.17749023 C25.84880059 27.99651839 25.84880059 27.99651839 27 29 C29.74804065 20.44088525 32.39279838 11.92529535 34.421875 3.16015625 C35 1 35 1 36 0 C38.53049402 -0.07313567 41.03304837 -0.09247527 43.5625 -0.0625 C44.62887695 -0.05573242 44.62887695 -0.05573242 45.71679688 -0.04882812 C47.47790013 -0.03700864 49.23896036 -0.01907263 51 0 C49.68453313 6.27039209 48.0805271 12.33826559 46.125 18.4375 C45.85816406 19.27659912 45.59132813 20.11569824 45.31640625 20.98022461 C43.75657778 25.82595984 42.0586213 30.55500293 40.078125 35.24609375 C37.41494545 42.04878065 35.26866239 49.05789309 33 56 C28.71 56 24.42 56 20 56 C16.05473877 45.42669992 12.53921087 34.71461774 9 24 C6.88952313 27.16571531 6.1689179 29.59160817 5.1875 33.25 C3.06278818 40.93103369 0.57657407 48.46035294 -2 56 C-6.29 56 -10.58 56 -15 56 C-18.31969378 47.9561266 -21.24122262 39.79418209 -24.10107422 31.57910156 C-25.1064491 28.69458763 -26.11765223 25.81214535 -27.12890625 22.9296875 C-27.85698166 20.8490321 -28.58484802 18.76830353 -29.3125 16.6875 C-29.6621582 15.69081299 -30.01181641 14.69412598 -30.37207031 13.66723633 C-30.69916992 12.72904053 -31.02626953 11.79084473 -31.36328125 10.82421875 C-31.65501221 9.98979248 -31.94674316 9.15536621 -32.24731445 8.2956543 C-32.93104146 6.21032019 -33.49988178 4.135864 -34 2 C-30.32612505 1.14701624 -26.9552607 0.89210529 -23.1875 0.9375 C-22.21167969 0.94652344 -21.23585938 0.95554687 -20.23046875 0.96484375 C-19.49441406 0.97644531 -18.75835937 0.98804688 -18 1 C-11.42553191 20.53191489 -11.42553191 20.53191489 -9 29 C-6.9324055 25.89860825 -6.21670418 23.60045104 -5.2734375 20.01953125 C-4.9640625 18.85615234 -4.6546875 17.69277344 -4.3359375 16.49414062 C-4.01882813 15.27919922 -3.70171875 14.06425781 -3.375 12.8125 C-3.05015625 11.58595703 -2.7253125 10.35941406 -2.390625 9.09570312 C-1.58875824 6.06511846 -0.79372955 3.03272602 0 0 Z " fill="#050505" transform="translate(482,267)"/>
<path d="M0 0 C0 9.24 0 18.48 0 28 C2.64 26.68 5.28 25.36 8 24 C14.5953697 22.02138909 21.46556408 22.47439375 27.8828125 24.828125 C31.70261489 26.94240676 34.15894689 30.08118696 36 34 C37.01474013 39.51519854 37.13200031 44.85193034 37.09765625 50.43359375 C37.0962413 51.31153091 37.09482635 52.18946808 37.09336853 53.0940094 C37.08780821 55.87520882 37.07526321 58.65632526 37.0625 61.4375 C37.05747987 63.33268112 37.05291786 65.22786352 37.04882812 67.12304688 C37.0378518 71.74872948 37.02061482 76.37435071 37 81 C32.38 81 27.76 81 23 81 C22.99589111 79.8447583 22.99178223 78.6895166 22.98754883 77.49926758 C22.96573676 73.20308131 22.91142598 68.90780821 22.84741211 64.61206055 C22.82425012 62.75472787 22.8098406 60.89726418 22.80444336 59.03979492 C22.79514038 56.365545 22.75412303 53.69335032 22.70703125 51.01953125 C22.7109639 50.19226028 22.71489655 49.36498932 22.71894836 48.51264954 C22.6097221 44.17302661 22.38898349 42.48896271 19.59399414 38.97558594 C16.93603699 36.95128577 15.89843856 36.33705152 12.625 36.4375 C11.91601562 36.43621094 11.20703125 36.43492187 10.4765625 36.43359375 C6.83370777 37.26673876 3.73322785 38.43990709 1 41 C-0.04061036 44.03209068 0.04455912 46.95854815 0.09765625 50.140625 C0.07921913 51.46389801 0.07921913 51.46389801 0.06040955 52.81390381 C0.0286595 55.62678035 0.04496105 58.43704111 0.0625 61.25 C0.04939224 63.15887855 0.03315301 65.06773835 0.01367188 66.9765625 C-0.02720037 71.65160043 -0.02498886 76.32486887 0 81 C-4.95 81 -9.9 81 -15 81 C-15 54.6 -15 28.2 -15 1 C-6 0 -6 0 0 0 Z " fill="#040404" transform="translate(400,383)"/>
<path d="M0 0 C0 9.24 0 18.48 0 28 C2.64 26.68 5.28 25.36 8 24 C14.5953697 22.02138909 21.46556408 22.47439375 27.8828125 24.828125 C31.70261489 26.94240676 34.15894689 30.08118696 36 34 C37.01474013 39.51519854 37.13200031 44.85193034 37.09765625 50.43359375 C37.0962413 51.31153091 37.09482635 52.18946808 37.09336853 53.0940094 C37.08780821 55.87520882 37.07526321 58.65632526 37.0625 61.4375 C37.05747987 63.33268112 37.05291786 65.22786352 37.04882812 67.12304688 C37.0378518 71.74872948 37.02061482 76.37435071 37 81 C32.38 81 27.76 81 23 81 C22.99589111 79.8447583 22.99178223 78.6895166 22.98754883 77.49926758 C22.96573676 73.20308131 22.91142598 68.90780821 22.84741211 64.61206055 C22.82425012 62.75472787 22.8098406 60.89726418 22.80444336 59.03979492 C22.79514038 56.365545 22.75412303 53.69335032 22.70703125 51.01953125 C22.7109639 50.19226028 22.71489655 49.36498932 22.71894836 48.51264954 C22.6097221 44.17302661 22.38898349 42.48896271 19.59399414 38.97558594 C16.93603699 36.95128577 15.89843856 36.33705152 12.625 36.4375 C11.91601562 36.43621094 11.20703125 36.43492187 10.4765625 36.43359375 C6.83370777 37.26673876 3.73322785 38.43990709 1 41 C-0.04061036 44.03209068 0.04455912 46.95854815 0.09765625 50.140625 C0.07921913 51.46389801 0.07921913 51.46389801 0.06040955 52.81390381 C0.0286595 55.62678035 0.04496105 58.43704111 0.0625 61.25 C0.04939224 63.15887855 0.03315301 65.06773835 0.01367188 66.9765625 C-0.02720037 71.65160043 -0.02498886 76.32486887 0 81 C-4.95 81 -9.9 81 -15 81 C-15 54.6 -15 28.2 -15 1 C-6 0 -6 0 0 0 Z " fill="#040404" transform="translate(165,242)"/>
<path d="M0 0 C6.92067217 4.71431109 10.39293454 11.30550869 12.703125 19.16015625 C12.703125 23.45015625 12.703125 27.74015625 12.703125 32.16015625 C0.493125 32.16015625 -11.716875 32.16015625 -24.296875 32.16015625 C-22.06975217 38.79221621 -22.06975217 38.79221621 -19.0390625 41.078125 C-11.78240595 43.94150657 -2.49825203 42.90353798 4.703125 40.16015625 C5.40538641 41.4019232 6.08941609 42.65401224 6.765625 43.91015625 C7.14847656 44.60625 7.53132813 45.30234375 7.92578125 46.01953125 C8.703125 48.16015625 8.703125 48.16015625 8.609375 50.28515625 C7.3075889 52.97850681 5.91698027 53.36747141 3.140625 54.41015625 C-6.45002796 57.55708925 -17.94062973 57.9116771 -27.18359375 53.484375 C-34.12906756 49.13222043 -38.45926818 43.06499951 -40.8828125 35.27734375 C-42.61157257 26.43783473 -41.56197552 17.77490855 -37.04296875 10.00390625 C-29.07763139 -1.629393 -13.05043768 -6.09966109 0 0 Z " fill="#FF6756" transform="translate(296.296875,408.83984375)"/>
<path d="M0 0 C7.55864654 4.60091528 10.51669782 9.69649533 14.1875 17.5625 C15.25595976 22.51626799 14.875 27.68231575 14.875 32.75 C2.665 32.75 -9.545 32.75 -22.125 32.75 C-19.21898912 40.09829395 -19.21898912 40.09829395 -13.29296875 43.09375 C-6.14584165 45.25720469 0.07173689 43.09210697 6.875 40.75 C7.57437202 42.1817616 8.25912718 43.62067032 8.9375 45.0625 C9.32035156 45.86300781 9.70320312 46.66351563 10.09765625 47.48828125 C10.875 49.75 10.875 49.75 9.875 52.75 C2.159613 58.09004795 -8.17305177 57.77429653 -17.125 56.75 C-24.37597686 55.19094772 -29.64904317 51.64254954 -34.125 45.75 C-39.22699456 37.42814911 -40.44179192 28.90308153 -38.6640625 19.24609375 C-36.19541379 10.89625254 -31.44162148 5.01509534 -23.95703125 0.66015625 C-17.5088366 -2.54331785 -6.74689498 -2.75873039 0 0 Z " fill="#060606" transform="translate(556.125,408.25)"/>
<path d="M0 0 C7.55864654 4.60091528 10.51669782 9.69649533 14.1875 17.5625 C15.25595976 22.51626799 14.875 27.68231575 14.875 32.75 C2.665 32.75 -9.545 32.75 -22.125 32.75 C-19.21898912 40.09829395 -19.21898912 40.09829395 -13.29296875 43.09375 C-6.14584165 45.25720469 0.07173689 43.09210697 6.875 40.75 C7.57437202 42.1817616 8.25912718 43.62067032 8.9375 45.0625 C9.32035156 45.86300781 9.70320313 46.66351563 10.09765625 47.48828125 C10.875 49.75 10.875 49.75 9.875 52.75 C2.159613 58.09004795 -8.17305177 57.77429653 -17.125 56.75 C-24.37597686 55.19094772 -29.64904317 51.64254954 -34.125 45.75 C-39.22699456 37.42814911 -40.44179192 28.90308153 -38.6640625 19.24609375 C-36.19541379 10.89625254 -31.44162148 5.01509534 -23.95703125 0.66015625 C-17.5088366 -2.54331785 -6.74689498 -2.75873039 0 0 Z " fill="#060606" transform="translate(253.125,267.25)"/>
<path d="M0 0 C-0.78224743 4.3972938 -2.17154259 7.94559445 -4 12 C-6.96041267 11.58691916 -9.58298272 11.18231409 -12.33203125 9.98046875 C-15.36790184 8.86479742 -17.77238216 8.69985058 -21 8.6875 C-22.010625 8.67074219 -23.02125 8.65398437 -24.0625 8.63671875 C-27.44873095 9.05549465 -29.3194738 9.90493169 -32 12 C-32.83383302 15.41408529 -32.83383302 15.41408529 -32 19 C-28.15412711 23.67375159 -23.57720893 26.07531001 -18.3125 28.8125 C1.37035431 39.43093409 1.37035431 39.43093409 5 49 C6.04514197 55.77118571 5.06717849 61.43753529 1 67 C-4.11072647 72.57878805 -10.01717739 76.01283516 -17.63671875 76.43359375 C-19.32015803 76.45643688 -21.00401899 76.45702697 -22.6875 76.4375 C-23.56583496 76.43282715 -24.44416992 76.4281543 -25.34912109 76.42333984 C-32.84263761 76.25381574 -41.45002022 75.54997978 -47 70 C-46.61541132 65.76952455 -45.36395494 62.00242515 -44 58 C-43.29617188 58.28875 -42.59234375 58.5775 -41.8671875 58.875 C-33.14493768 62.15438375 -23.42949625 64.42898516 -14.5859375 60.47265625 C-13.73257813 59.98667969 -12.87921875 59.50070312 -12 59 C-11.8453125 57.14375 -11.8453125 57.14375 -11.6875 55.25 C-11.60048828 54.20585937 -11.60048828 54.20585937 -11.51171875 53.140625 C-12.28001761 49.77240279 -14.16670029 48.90350885 -17 47 C-19.85851928 45.34474555 -22.7702917 43.7987647 -25.6875 42.25 C-45.08261173 31.64226065 -45.08261173 31.64226065 -48.44140625 22.2890625 C-49.856772 16.48903221 -49.92409966 12.00945022 -46.875 6.75 C-35.11375817 -9.82116146 -16.45157035 -6.53395702 0 0 Z " fill="#050505" transform="translate(367,389)"/>
<path d="M0 0 C6.51010992 4.35957922 10.39603601 10.85625734 12.73828125 18.1640625 C12.73828125 22.7840625 12.73828125 27.4040625 12.73828125 32.1640625 C0.52828125 32.1640625 -11.68171875 32.1640625 -24.26171875 32.1640625 C-21.21439182 38.27415729 -21.21439182 38.27415729 -16.26171875 42.1640625 C-8.9024202 44.61716202 -2.43532563 42.34338611 4.73828125 40.1640625 C5.44054266 41.40582945 6.12457234 42.65791849 6.80078125 43.9140625 C7.18363281 44.61015625 7.56648438 45.30625 7.9609375 46.0234375 C8.88750157 48.57498076 8.80586361 49.68706106 7.73828125 52.1640625 C-0.24551338 57.0632092 -10.1360244 57.37468093 -19.26171875 56.1640625 C-28.67841651 53.22462507 -34.43895706 48.24503354 -39.13671875 39.7890625 C-41.77713027 31.64514264 -41.85399569 20.47943836 -38.32421875 12.6015625 C-30.39908628 -0.56946731 -14.53327613 -6.65978821 0 0 Z " fill="#050505" transform="translate(430.26171875,267.8359375)"/>
<path d="M0 0 C0.33 14.52 0.66 29.04 1 44 C3.97 41.03 6.94 38.06 10 35 C14.3125 31.1875 14.3125 31.1875 16.26953125 29.5078125 C18.27468378 27.76065928 20.15843313 25.91829882 22 24 C25.1489715 25.36911804 27.0478487 26.8752136 29.25 29.5 C30.03117187 30.41265625 30.03117187 30.41265625 30.828125 31.34375 C32 33 32 33 32 35 C30.28048026 36.53851766 28.49812503 38.00731759 26.6875 39.4375 C24.7835774 40.94819414 22.88689575 42.46809188 21 44 C20.05060547 44.75990234 20.05060547 44.75990234 19.08203125 45.53515625 C17.78182646 46.93858338 17.78182646 46.93858338 18.24365234 48.76806641 C19.1717798 51.5069112 20.49708499 53.71590178 22.01953125 56.17578125 C22.62990234 57.16900391 23.24027344 58.16222656 23.86914062 59.18554688 C24.51044922 60.21744141 25.15175781 61.24933594 25.8125 62.3125 C27.06985039 64.34974224 28.32638102 66.38749068 29.58203125 68.42578125 C30.17322754 69.38436035 30.76442383 70.34293945 31.37353516 71.33056641 C33.31615965 74.51889668 35.17604415 77.74260781 37 81 C30.98184696 82.33736734 24.82860426 83.54934238 19 81 C13.02159382 74.93518877 9.45553568 66.68805572 6 59 C3.3094472 60.22007944 3.3094472 60.22007944 1 62 C0.84379445 63.41327947 0.74943827 64.8335459 0.68359375 66.25390625 C0.64169922 67.10791016 0.59980469 67.96191406 0.55664062 68.84179688 C0.51732422 69.73962891 0.47800781 70.63746094 0.4375 71.5625 C0.39431641 72.46419922 0.35113281 73.36589844 0.30664062 74.29492188 C0.20022016 76.52975156 0.09957519 78.76485486 0 81 C-4.95 81 -9.9 81 -15 81 C-15 54.6 -15 28.2 -15 1 C-11 0 -11 0 0 0 Z " fill="#FF6655" transform="translate(213,383)"/>
<path d="M0 0 C3.54885433 3.00936104 5.87942879 6.64931528 6.44963074 11.34718323 C6.53356181 13.89033882 6.52484406 16.41678221 6.48046875 18.9609375 C6.47622391 19.8846817 6.47197906 20.8084259 6.46760559 21.76016235 C6.45088673 24.6945783 6.41324716 27.62829356 6.375 30.5625 C6.35994438 32.55858379 6.34625751 34.55467841 6.33398438 36.55078125 C6.30100545 41.42995522 6.24927014 46.30860903 6.1875 51.1875 C-1.5625 51.375 -1.5625 51.375 -3.8125 49.6875 C-4.1425 49.1925 -4.4725 48.6975 -4.8125 48.1875 C-9.02546529 49.55679283 -9.02546529 49.55679283 -13.12109375 51.234375 C-18.65926912 53.19564465 -25.44880841 53.20996929 -31.07421875 51.5 C-36.23801403 48.81169009 -39.01322984 44.58531047 -40.8125 39.1875 C-41.31429253 33.94746977 -41.461525 29.56043749 -39.1875 24.75 C-34.89547256 20.11912829 -30.1285809 17.03253312 -23.8125 16.1875 C-19.14049544 16.03364694 -14.48499623 16.07084961 -9.8125 16.1875 C-10.78026098 12.39202079 -10.78026098 12.39202079 -12.8125 9.1875 C-20.03636659 8.77111091 -26.99418951 8.59004838 -33.8125 11.1875 C-34.48555018 9.58600114 -35.15072227 7.98118971 -35.8125 6.375 C-36.18375 5.48167969 -36.555 4.58835937 -36.9375 3.66796875 C-37.8125 1.1875 -37.8125 1.1875 -37.8125 -1.8125 C-25.24296055 -6.79697254 -11.2433565 -8.92441422 0 0 Z " fill="#050505" transform="translate(852.8125,271.8125)"/>
<path d="M0 0 C21.12 0 42.24 0 64 0 C64.99 5.445 64.99 5.445 66 11 C57.09 11 48.18 11 39 11 C39 33.11 39 55.22 39 78 C34.05 78 29.1 78 24 78 C24 56.22 24 34.44 24 12 C16.08 12 8.16 12 0 12 C0 8.04 0 4.08 0 0 Z " fill="#060606" transform="translate(75,245)"/>
<path d="M0 0 C2.23046875 1.265625 2.23046875 1.265625 3.17578125 3.140625 C3.24406906 5.79409431 2.56635049 7.20038547 1.29296875 9.515625 C0.72255859 10.57523437 0.72255859 10.57523437 0.140625 11.65625 C-0.15972656 12.18734375 -0.46007812 12.7184375 -0.76953125 13.265625 C-1.86265625 12.935625 -2.95578125 12.605625 -4.08203125 12.265625 C-9.29843557 10.93576968 -14.42201594 11.08868516 -19.76953125 11.265625 C-20.09953125 12.585625 -20.42953125 13.905625 -20.76953125 15.265625 C-19.65578125 15.8225 -18.54203125 16.379375 -17.39453125 16.953125 C-16.66878906 17.31792969 -15.94304688 17.68273437 -15.1953125 18.05859375 C-13.53217691 18.88614431 -11.86249013 19.70062051 -10.1875 20.50390625 C2.49634011 26.64615566 2.49634011 26.64615566 5.23046875 33.265625 C5.90964731 38.13583225 5.89893513 42.67869224 3.66796875 47.140625 C0.11032805 51.70170282 -4.01623448 54.20056833 -9.76953125 55.265625 C-28.59947087 56.53342447 -28.59947087 56.53342447 -35.76953125 51.265625 C-36.93018862 48.77850206 -36.93081177 47.70975428 -35.9921875 45.125 C-35.60933594 44.42890625 -35.22648438 43.7328125 -34.83203125 43.015625 C-34.45175781 42.30921875 -34.07148437 41.6028125 -33.6796875 40.875 C-33.37933594 40.34390625 -33.07898438 39.8128125 -32.76953125 39.265625 C-32.06828125 39.4821875 -31.36703125 39.69875 -30.64453125 39.921875 C-24.82430275 41.62998554 -19.83686547 42.80735127 -13.76953125 42.265625 C-12.77953125 41.605625 -11.78953125 40.945625 -10.76953125 40.265625 C-10.6413776 37.8803517 -10.6413776 37.8803517 -11.76953125 35.265625 C-14.43760293 33.70505477 -16.94934971 32.49046428 -19.76953125 31.265625 C-21.85993565 30.28049189 -23.94302789 29.27973129 -26.01953125 28.265625 C-27.0146875 27.79125 -28.00984375 27.316875 -29.03515625 26.828125 C-32.98700355 24.56992654 -35.31813807 22.61980453 -36.76953125 18.265625 C-37.28806943 13.3267614 -37.3215265 9.41207666 -35.14453125 4.890625 C-25.61913828 -5.63744091 -12.47706154 -4.15352643 0 0 Z " fill="#040404" transform="translate(615.76953125,409.734375)"/>
<path d="M0 0 C5.28 0 10.56 0 16 0 C14.66995811 4.65514661 13.34448538 8.89505682 11.57421875 13.3515625 C11.10693359 14.53363281 10.63964844 15.71570313 10.15820312 16.93359375 C9.67287109 18.15175781 9.18753906 19.36992187 8.6875 20.625 C7.73260678 23.03366942 6.77817757 25.44252285 5.82421875 27.8515625 C5.3557251 29.03371338 4.88723145 30.21586426 4.40454102 31.43383789 C1.19122535 39.59252065 -1.93880062 47.7830964 -5 56 C-9.62 56 -14.24 56 -19 56 C-20.19496094 52.90431641 -20.19496094 52.90431641 -21.4140625 49.74609375 C-22.20828337 47.69042877 -23.00280988 45.63488217 -23.79736328 43.5793457 C-24.3386964 42.17842668 -24.87972453 40.77738975 -25.42041016 39.3762207 C-31.6041129 23.24257986 -31.6041129 23.24257986 -38.17041016 7.26342773 C-39 5 -39 5 -39 2 C-35.68929162 0.99890485 -32.69915231 0.89643866 -29.25 0.9375 C-28.26515625 0.94652344 -27.2803125 0.95554687 -26.265625 0.96484375 C-25.14414062 0.98224609 -25.14414062 0.98224609 -24 1 C-19.7806711 10.9163951 -15.87644821 20.94581156 -12 31 C-9.92130472 27.88195708 -8.86244451 25.11025943 -7.6171875 21.58203125 C-7.39805695 20.96478683 -7.17892639 20.34754242 -6.95315552 19.71159363 C-6.25654807 17.74657972 -5.56570628 15.77959496 -4.875 13.8125 C-4.40272301 12.47707935 -3.93007101 11.14179127 -3.45703125 9.80664062 C-2.29962538 6.53950721 -1.15004241 3.26977002 0 0 Z " fill="#050505" transform="translate(789,267)"/>
<path d="M0 0 C0 26.73 0 53.46 0 81 C-4.95 81 -9.9 81 -15 81 C-15 54.6 -15 28.2 -15 1 C-6 0 -6 0 0 0 Z " fill="#070707" transform="translate(889,242)"/>
<path d="M0 0 C2.64 0 5.28 0 8 0 C12 4.6 12 4.6 12 8 C12.78503906 7.50628906 13.57007813 7.01257813 14.37890625 6.50390625 C24.81370826 0.14059754 24.81370826 0.14059754 31 0 C32.30492469 4.15944744 33.12019705 7.65036909 33 12 C32.27554688 12.24234375 31.55109375 12.4846875 30.8046875 12.734375 C29.83789062 13.06953125 28.87109375 13.4046875 27.875 13.75 C26.44800781 14.23726563 26.44800781 14.23726563 24.9921875 14.734375 C21.49362684 16.21418395 18.9094261 17.52321707 16 20 C15.38031039 23.01350006 15.15956549 25.25139603 15.1953125 28.265625 C15.17475296 29.45572174 15.17475296 29.45572174 15.15377808 30.66986084 C15.11646837 33.19715021 15.12019299 35.72247427 15.125 38.25 C15.10687365 39.96617656 15.08607115 41.68232709 15.0625 43.3984375 C15.01064085 47.59928778 14.99556974 51.79884717 15 56 C10.05 56 5.1 56 0 56 C0 37.52 0 19.04 0 0 Z " fill="#060606" transform="translate(685,267)"/>
<path d="M0 0 C2.64 0 5.28 0 8 0 C12 4.6 12 4.6 12 8 C12.78503906 7.50628906 13.57007813 7.01257813 14.37890625 6.50390625 C24.81370826 0.14059754 24.81370826 0.14059754 31 0 C32.30492469 4.15944744 33.12019705 7.65036909 33 12 C32.27554688 12.24234375 31.55109375 12.4846875 30.8046875 12.734375 C29.83789062 13.06953125 28.87109375 13.4046875 27.875 13.75 C26.44800781 14.23726563 26.44800781 14.23726563 24.9921875 14.734375 C21.49362684 16.21418395 18.9094261 17.52321707 16 20 C15.38031039 23.01350006 15.15956549 25.25139603 15.1953125 28.265625 C15.17475296 29.45572174 15.17475296 29.45572174 15.15377808 30.66986084 C15.11646837 33.19715021 15.12019299 35.72247427 15.125 38.25 C15.10687365 39.96617656 15.08607115 41.68232709 15.0625 43.3984375 C15.01064085 47.59928778 14.99556974 51.79884717 15 56 C10.05 56 5.1 56 0 56 C0 37.52 0 19.04 0 0 Z " fill="#060606" transform="translate(644,267)"/>
<path d="M0 0 C4.95 0 9.9 0 15 0 C15 18.48 15 36.96 15 56 C10.05 56 5.1 56 0 56 C0 37.52 0 19.04 0 0 Z " fill="#FF6857" transform="translate(167,408)"/>
<path d="M0 0 C4.95 0 9.9 0 15 0 C15 18.48 15 36.96 15 56 C10.05 56 5.1 56 0 56 C0 37.52 0 19.04 0 0 Z " fill="#060606" transform="translate(726,267)"/>
<path d="M0 0 C3.46984973 1.5994355 5.43614746 3.84888237 7.12890625 7.3046875 C9.03069308 13.18914001 8.78570111 19.68424935 6.8125 25.5 C4.1747488 29.13827752 2.138354 31.44574436 -2.3359375 32.60546875 C-6.78076615 33.27953436 -9.30863541 33.3268269 -13.4375 31.375 C-17.21996387 27.86930178 -18.83686792 25.42115963 -19.43359375 20.22265625 C-19.45071244 18.83604256 -19.4516626 17.44914704 -19.4375 16.0625 C-19.45748047 15.37220703 -19.47746094 14.68191406 -19.49804688 13.97070312 C-19.49317945 8.83557465 -18.23923348 5.93042616 -15 2 C-10.32043958 -1.11970695 -5.47445717 -0.7087144 0 0 Z " fill="#F9F9F9" transform="translate(484,420)"/>
<path d="M0 0 C-9.6457035 4.38070654 -19.31253804 8.71248501 -29 13 C-29.73933777 13.3272406 -30.47867554 13.6544812 -31.24041748 13.99163818 C-35.71948653 15.97057035 -40.20596115 17.93129445 -44.70193481 19.871521 C-46.14338267 20.49569563 -47.58293032 21.12427814 -49.02047729 21.75738525 C-51.04760591 22.64882539 -53.08120811 23.52353142 -55.1171875 24.39453125 C-56.27847168 24.89831299 -57.43975586 25.40209473 -58.63623047 25.92114258 C-62.32488335 27.10419941 -65.14963476 27.33180833 -69 27 C-71.75329021 25.20437595 -73.52627461 23.94745078 -75 21 C-75.36973845 13.54092871 -72.33120395 7.89388265 -68 2 C-67.67 2 -67.34 2 -67 2 C-66.896875 3.258125 -66.79375 4.51625 -66.6875 5.8125 C-66.36290317 8.22562115 -66.08546292 9.83912862 -64.9375 12 C-59.68811062 14.70936226 -52.76958909 12.66518549 -47.4140625 11.20703125 C-46.71852768 11.02048477 -46.02299286 10.83393829 -45.30638123 10.64173889 C-43.07662512 10.04125674 -40.85094951 9.42692529 -38.625 8.8125 C-37.09327066 8.39831422 -35.56128687 7.98506832 -34.02905273 7.57275391 C-27.63011256 5.84507461 -21.24249876 4.0807341 -14.87109375 2.25390625 C-13.61594971 1.89558716 -13.61594971 1.89558716 -12.33544922 1.5300293 C-10.86702005 1.10685041 -9.40096776 0.67529359 -7.93798828 0.23364258 C-4.69767628 -0.70968151 -3.29070716 -1.09690239 0 0 Z " fill="#FF6958" transform="translate(150,43)"/>
<path d="M0 0 C0.66 0 1.32 0 2 0 C3.50801568 3.93447709 5.00502914 7.87304977 6.5 11.8125 C7.14388672 13.49182617 7.14388672 13.49182617 7.80078125 15.20507812 C8.20683594 16.27822266 8.61289062 17.35136719 9.03125 18.45703125 C9.40830078 19.44678955 9.78535156 20.43654785 10.17382812 21.45629883 C11 24 11 24 11 27 C4.4 27 -2.2 27 -9 27 C-8.28865192 22.73191153 -7.66588373 19.71227246 -6.15234375 15.8203125 C-5.79462891 14.8921875 -5.43691406 13.9640625 -5.06835938 13.0078125 C-4.50858398 11.58082031 -4.50858398 11.58082031 -3.9375 10.125 C-3.37192383 8.66320312 -3.37192383 8.66320312 -2.79492188 7.171875 C-1.86835624 4.77922451 -0.93659209 2.38873946 0 0 Z " fill="#EEEEEE" transform="translate(598,266)"/>
<path d="M0 0 C2.875 1.4375 2.875 1.4375 5 4 C5.71555259 7.14496906 5.70993955 9.85433287 5 13 C2.33120085 16.31578076 0.68392436 16.89008359 -3.5 17.5625 C-7 17 -7 17 -9.9375 14.9375 C-12.52001338 11.25937488 -12.72125695 9.40768137 -12 5 C-8.47403586 0.53377875 -5.6371593 -0.55266268 0 0 Z " fill="#FFFBF9" transform="translate(88,140)"/>
<path d="M0 0 C0.74958984 0.01353516 1.49917969 0.02707031 2.27148438 0.04101562 C4.11879767 0.07631461 5.96574066 0.13012083 7.8125 0.1875 C7.8125 3.1575 7.8125 6.1275 7.8125 9.1875 C-0.94182526 14.1875 -0.94182526 14.1875 -5.625 14.1875 C-9.75437898 12.57603503 -9.75437898 12.57603503 -11.1875 10.1875 C-11.82267459 4.25920384 -11.82267459 4.25920384 -10.17578125 1.48046875 C-7.00991383 -0.57827804 -3.64218646 -0.12405701 0 0 Z " fill="#F8F8F8" transform="translate(836.1875,298.8125)"/>
<path d="M0 0 C2.5 1.5625 2.5 1.5625 4 4 C4.72125695 8.40768137 4.52001338 10.25937488 1.9375 13.9375 C-1.74062512 16.52001338 -3.59231863 16.72125695 -8 16 C-11.26473709 13.85214665 -11.9058033 12.30475404 -13.0625 8.5625 C-13 5 -13 5 -11.0625 2.0625 C-6.86229946 -0.76620649 -4.99614519 -0.71373503 0 0 Z " fill="#080808" transform="translate(738,243)"/>
<path d="M0 0 C2.5 1.5 2.5 1.5 4 4 C4.791013 8.02098277 4.62153384 10.96411027 2.5 14.5 C-1.03588973 16.62153384 -3.97901723 16.791013 -8 16 C-10.5 14.5 -10.5 14.5 -12 12 C-12.791013 7.97901723 -12.62153384 5.03588973 -10.5 1.5 C-6.96411027 -0.62153384 -4.02098277 -0.791013 0 0 Z " fill="#FF6755" transform="translate(179,384)"/>
<path d="M0 0 C4.66463827 3.30411878 5.11883785 5.35651356 7 11 C-0.92 11 -8.84 11 -17 11 C-16.01221524 6.06107618 -15.26400276 4.56073029 -12 1 C-8.27556564 -0.86221718 -4.05580388 -0.56206416 0 0 Z " fill="#FFF1EF" transform="translate(288,420)"/>
<path d="M0 0 C3.0625 2.125 3.0625 2.125 5 5 C5.33 6.98 5.66 8.96 6 11 C-1.59 11 -9.18 11 -17 11 C-16.01221524 6.06107618 -15.26400276 4.56073029 -12 1 C-8.27513369 -0.86243315 -4.05622775 -0.56123906 0 0 Z " fill="#EFEFEF" transform="translate(550,420)"/>
<path d="M0 0 C3.0625 2.125 3.0625 2.125 5 5 C5.33 6.98 5.66 8.96 6 11 C-1.59 11 -9.18 11 -17 11 C-16.01221524 6.06107618 -15.26400276 4.56073029 -12 1 C-8.27513369 -0.86243315 -4.05622775 -0.56123906 0 0 Z " fill="#EFEFEF" transform="translate(247,279)"/>
<path d="M0 0 C4.69060907 1.17265227 5.35091619 2.25336773 8.1875 6 C8.88230469 6.9075 9.57710937 7.815 10.29296875 8.75 C10.85628906 9.4925 11.41960937 10.235 12 11 C12.33 11.33 12.66 11.66 13 12 C13.33 8.04 13.66 4.08 14 0 C15.32 0 16.64 0 18 0 C18 6.93 18 13.86 18 21 C16.68 21 15.36 21 14 21 C11.9296875 18.91796875 11.9296875 18.91796875 9.875 16.1875 C9.19179687 15.29417969 8.50859375 14.40085937 7.8046875 13.48046875 C6.49632153 11.68217353 5.23359228 9.85038841 4 8 C3.67 12.29 3.34 16.58 3 21 C2.01 21 1.02 21 0 21 C0 14.07 0 7.14 0 0 Z " fill="#FF6E5E" transform="translate(165,45)"/>
<path d="M0 0 C3.53714641 2.06333541 5.62328635 4.12017062 7 8 C7 8.99 7 9.98 7 11 C-0.59 11 -8.18 11 -16 11 C-15 5 -15 5 -13.0625 2.125 C-8.74565676 -0.87036061 -5.10703751 -0.91557087 0 0 Z " fill="#F0F0F0" transform="translate(422,279)"/>
<path d="M0 0 C3 2.0625 3 2.0625 5 5 C5.0625 8.625 5.0625 8.625 4 12 C1.9375 13.9375 1.9375 13.9375 0 15 C1.65 15.33 3.3 15.66 5 16 C4.67 16.66 4.34 17.32 4 18 C-1.72017534 18.49030074 -4.51452092 16.22139391 -8.8125 12.6875 C-11 10 -11 10 -11.5625 6.9375 C-11 4 -11 4 -9.4375 1.625 C-6.02544071 -0.64970619 -4.02388226 -0.63534983 0 0 Z " fill="#CCCACC" transform="translate(407,521)"/>
<path d="M0 0 C1.5675 -0.061875 3.135 -0.12375 4.75 -0.1875 C6.07257813 -0.23970703 6.07257813 -0.23970703 7.421875 -0.29296875 C10.52351115 0.0594899 11.82221815 0.78225885 14 3 C14.54889545 7.32255167 14.71716742 9.69605923 12.625 13.5 C8.46285285 15.8783698 4.74014469 15.2494813 0 15 C0 10.05 0 5.1 0 0 Z " fill="#F8F9F6" transform="translate(77,521)"/>
<path d="M0 0 C1.32 0 2.64 0 4 0 C4 14.85 4 29.7 4 45 C2.68 45 1.36 45 0 45 C0 30.15 0 15.3 0 0 Z " fill="#C1C1C1" transform="translate(1347,20)"/>
<path d="M0 0 C1.32 0 2.64 0 4 0 C4.33 3.96 4.66 7.92 5 12 C5.9075 11.01 6.815 10.02 7.75 9 C9.296875 7.3125 9.296875 7.3125 11 6 C12.32 6 13.64 6 15 6 C15 6.66 15 7.32 15 8 C13 9.625 13 9.625 11 11 C11.50298788 15.40114397 13.08772731 17.71195019 16 21 C14.25 21.75 14.25 21.75 12 22 C9.75 20.1875 9.75 20.1875 8 18 C8 17.34 8 16.68 8 16 C7.01 16.33 6.02 16.66 5 17 C4.67 18.65 4.34 20.3 4 22 C2.68 22 1.36 22 0 22 C0 14.74 0 7.48 0 0 Z " fill="#FF7262" transform="translate(196,44)"/>
<path d="M0 0 C1.9375 1.25 1.9375 1.25 3 3 C3 4.65 3 6.3 3 8 C-0.63 8 -4.26 8 -8 8 C-7.01 9.485 -7.01 9.485 -6 11 C-2.535 10.505 -2.535 10.505 1 10 C1 11.32 1 12.64 1 14 C-1.88861709 15.44430855 -3.79647701 15.37688506 -7 15 C-10.66900829 12.36788535 -11.84009531 10.91145674 -12.625 6.4375 C-12 3 -12 3 -9.9375 0.5 C-6.10621033 -1.45640324 -4.1000774 -1.13891039 0 0 Z " fill="#FF6C5C" transform="translate(225,51)"/>
<path d="M0 0 C0.33 0.99 0.66 1.98 1 3 C5.62 3 10.24 3 15 3 C15 3.33 15 3.66 15 4 C13.02 4 11.04 4 9 4 C9 4.99 9 5.98 9 7 C11.31 7.66 13.62 8.32 16 9 C15.67 10.65 15.34 12.3 15 14 C12.68756208 14.02685412 10.3750373 14.04632841 8.0625 14.0625 C6.77472656 14.07410156 5.48695313 14.08570312 4.16015625 14.09765625 C1 14 1 14 0 13 C-0.07179964 11.48071962 -0.08392007 9.95832518 -0.0625 8.4375 C-0.05347656 7.61121094 -0.04445313 6.78492188 -0.03515625 5.93359375 C-0.02355469 5.29550781 -0.01195312 4.65742187 0 4 C-0.66 3.67 -1.32 3.34 -2 3 C-1.34 3 -0.68 3 0 3 C0 2.01 0 1.02 0 0 Z " fill="#F9F9F8" transform="translate(844,50)"/>
<path d="M0 0 C3.375 0.9375 3.375 0.9375 5.375 3.9375 C5.70002803 7.05776907 5.88651479 9.08497535 4.25 11.8125 C1.45053259 13.49218045 -0.42304064 13.39492277 -3.625 12.9375 C-6.4162125 10.95427007 -7.45097224 9.80763879 -8.125 6.4375 C-7.12997193 1.46235967 -5.00784378 -0.08634213 0 0 Z " fill="#FFF8FA" transform="translate(336.625,144.0625)"/>
<path d="M0 0 C3 0.8125 3 0.8125 4.9375 1.9375 C6.69646638 5.04155831 5.84936588 7.47570548 5 10.8125 C1.52957297 13.12611802 0.08165827 13.32270728 -4 12.8125 C-5.9375 11.25 -5.9375 11.25 -7 8.8125 C-6.875 5.1875 -6.875 5.1875 -6 1.8125 C-3 -0.1875 -3 -0.1875 0 0 Z " fill="#FFFAF9" transform="translate(264,144.1875)"/>
<path d="M0 0 C0.66 0 1.32 0 2 0 C2 5.28 2 10.56 2 16 C0.576875 16.061875 -0.84625 16.12375 -2.3125 16.1875 C-3.51326172 16.23970703 -3.51326172 16.23970703 -4.73828125 16.29296875 C-7 16 -7 16 -8.7734375 14.6796875 C-10.64006931 12.12347196 -10.32635853 10.06777019 -10 7 C-8 5 -8 5 -4.375 4.875 C-2.704375 4.936875 -2.704375 4.936875 -1 5 C-0.67 3.35 -0.34 1.7 0 0 Z " fill="#83899E" transform="translate(811,48)"/>
<path d="M0 0 C0.33 0.99 0.66 1.98 1 3 C3.01508358 3.73323796 3.01508358 3.73323796 5 4 C4.01 4 3.02 4 2 4 C2 6.97 2 9.94 2 13 C2.99 13.33 3.98 13.66 5 14 C0.25 13.25 0.25 13.25 -2 11 C-2.37125 11.495 -2.7425 11.99 -3.125 12.5 C-5.74694393 14.59755514 -7.73842472 14.21743835 -11 14 C-11.33 13.34 -11.66 12.68 -12 12 C-10.02 12 -8.04 12 -6 12 C-6 11.34 -6 10.68 -6 10 C-7.98 9.34 -9.96 8.68 -12 8 C-11.67 6.35 -11.34 4.7 -11 3 C-7.37 3 -3.74 3 0 3 C0 2.01 0 1.02 0 0 Z " fill="#C3C1C0" transform="translate(186,522)"/>
<path d="M0 0 C0.33 0 0.66 0 1 0 C1 5.28 1 10.56 1 16 C-7 16 -7 16 -9 14.875 C-10.45670212 12.14368353 -10.32339354 10.03989923 -10 7 C-8 5 -8 5 -4.375 4.875 C-2.704375 4.936875 -2.704375 4.936875 -1 5 C-0.67 3.35 -0.34 1.7 0 0 Z " fill="#C0BCBB" transform="translate(206,559)"/>
<path d="M0 0 C0.33 0 0.66 0 1 0 C1.33 1.65 1.66 3.3 2 5 C3.11375 4.95875 4.2275 4.9175 5.375 4.875 C9 5 9 5 11 7 C11.32339354 10.03989923 11.45670212 12.14368353 10 14.875 C8 16 8 16 0 16 C0 10.72 0 5.44 0 0 Z " fill="#BBBCC0" transform="translate(604,48)"/>
<path d="M0 0 C1.423125 -0.061875 2.84625 -0.12375 4.3125 -0.1875 C5.51326172 -0.23970703 5.51326172 -0.23970703 6.73828125 -0.29296875 C9 0 9 0 10.8046875 1.3515625 C12 3 12 3 11.8125 5.5625 C11 8 11 8 9 10 C6.31160615 10.26991906 3.70858064 10.08737357 1 10 C1 11.65 1 13.3 1 15 C0.67 15 0.34 15 0 15 C0 10.05 0 5.1 0 0 Z " fill="#BEBEC1" transform="translate(766,49)"/>
<path d="M0 0 C3.5 0.25 3.5 0.25 5.5 2.25 C5.83015665 5.35347254 6.00531294 7.40781176 4.375 10.125 C1.58893958 11.79663625 -0.31988862 11.71376624 -3.5 11.25 C-5.4375 9.5625 -5.4375 9.5625 -6.5 7.25 C-6.14950973 2.34313629 -5.13596028 0.36685431 0 0 Z " fill="#C6C4C5" transform="translate(793.5,52.75)"/>
<path d="M0 0 C1.875 1.1875 1.875 1.1875 3 3 C3.42822025 5.85480169 3.40659584 7.34492892 1.875 9.8125 C-0.87155972 11.55198782 -2.81846974 11.39769128 -6 11 C-7.875 9.8125 -7.875 9.8125 -9 8 C-9.42822025 5.14519831 -9.40659584 3.65507108 -7.875 1.1875 C-5.12844028 -0.55198782 -3.18153026 -0.39769128 0 0 Z " fill="#C6C4C5" transform="translate(347,564)"/>
<path d="M0 0 C1.875 1.1875 1.875 1.1875 3 3 C3.42822025 5.85480169 3.40659584 7.34492892 1.875 9.8125 C-0.87155972 11.55198782 -2.81846974 11.39769128 -6 11 C-7.875 9.8125 -7.875 9.8125 -9 8 C-9.42822025 5.14519831 -9.40659584 3.65507108 -7.875 1.1875 C-5.12844028 -0.55198782 -3.18153026 -0.39769128 0 0 Z " fill="#C6C4C5" transform="translate(140,564)"/>
<path d="M0 0 C1.875 1.1875 1.875 1.1875 3 3 C3.42822025 5.85480169 3.40659584 7.34492892 1.875 9.8125 C-0.87155972 11.55198782 -2.81846974 11.39769128 -6 11 C-7.875 9.8125 -7.875 9.8125 -9 8 C-9.42822025 5.14519831 -9.40659584 3.65507108 -7.875 1.1875 C-5.12844028 -0.55198782 -3.18153026 -0.39769128 0 0 Z " fill="#C6C4C5" transform="translate(626,53)"/>
<path d="M0 0 C3.5 0.25 3.5 0.25 5.5 2.25 C5.83015665 5.35347254 6.00531294 7.40781176 4.375 10.125 C1.65781176 11.75531294 -0.39652746 11.58015665 -3.5 11.25 C-5.5 9.25 -5.5 9.25 -5.75 5.75 C-5.40898007 0.975721 -4.774279 0.34101993 0 0 Z " fill="#C4C4C7" transform="translate(383.5,563.75)"/>
<path d="M0 0 C3.5 0.25 3.5 0.25 5.5 2.25 C5.75 5.75 5.75 5.75 5.5 9.25 C3.5 11.25 3.5 11.25 0.5625 11.5625 C-2.5 11.25 -2.5 11.25 -4.375 10.125 C-6.00531294 7.40781176 -5.83015665 5.35347254 -5.5 2.25 C-3.5 0.25 -3.5 0.25 0 0 Z " fill="#F9F9F3" transform="translate(308.5,563.75)"/>
<path d="M0 0 C3.5 0.25 3.5 0.25 5.5 2.25 C5.75 5.75 5.75 5.75 5.5 9.25 C3.5 11.25 3.5 11.25 0.5625 11.5625 C-2.5 11.25 -2.5 11.25 -4.375 10.125 C-6.00531294 7.40781176 -5.83015665 5.35347254 -5.5 2.25 C-3.5 0.25 -3.5 0.25 0 0 Z " fill="#F9F9F3" transform="translate(256.5,563.75)"/>
<path d="M0 0 C3.5 0.25 3.5 0.25 5.5 2.25 C5.8125 5.75 5.8125 5.75 5.5 9.25 C2.5 11.25 2.5 11.25 -1.125 11 C-2.23875 10.7525 -3.3525 10.505 -4.5 10.25 C-5.88125018 7.48749964 -5.69079306 5.30268901 -5.5 2.25 C-3.5 0.25 -3.5 0.25 0 0 Z " fill="#C6C4C4" transform="translate(93.5,563.75)"/>
<path d="M0 0 C3.5 0.25 3.5 0.25 5.5 2.25 C5.8125 5.75 5.8125 5.75 5.5 9.25 C2.5 11.25 2.5 11.25 -1.125 11 C-2.23875 10.7525 -3.3525 10.505 -4.5 10.25 C-5.88125018 7.48749964 -5.69079306 5.30268901 -5.5 2.25 C-3.5 0.25 -3.5 0.25 0 0 Z " fill="#C6C4C4" transform="translate(270.5,524.75)"/>
<path d="M0 0 C3.5 0.25 3.5 0.25 5.5 2.25 C5.75 5.75 5.75 5.75 5.5 9.25 C3.5 11.25 3.5 11.25 0.5625 11.5625 C-2.5 11.25 -2.5 11.25 -4.375 10.125 C-6.00531294 7.40781176 -5.83015665 5.35347254 -5.5 2.25 C-3.5 0.25 -3.5 0.25 0 0 Z " fill="#F9F9F3" transform="translate(127.5,524.75)"/>
<path d="M0 0 C3.5 0.25 3.5 0.25 5.5 2.25 C5.8125 5.75 5.8125 5.75 5.5 9.25 C2.5 11.25 2.5 11.25 -1.125 11 C-2.23875 10.7525 -3.3525 10.505 -4.5 10.25 C-5.88125018 7.48749964 -5.69079306 5.30268901 -5.5 2.25 C-3.5 0.25 -3.5 0.25 0 0 Z " fill="#C6C4C4" transform="translate(959.5,52.75)"/>
<path d="M0 0 C3.5 0.25 3.5 0.25 5.5 2.25 C5.8125 5.75 5.8125 5.75 5.5 9.25 C2.5 11.25 2.5 11.25 -1.125 11 C-2.23875 10.7525 -3.3525 10.505 -4.5 10.25 C-5.88125018 7.48749964 -5.69079306 5.30268901 -5.5 2.25 C-3.5 0.25 -3.5 0.25 0 0 Z " fill="#C6C4C4" transform="translate(466.5,52.75)"/>
<path d="M0 0 C2 3 2 3 2 6 C-1.3 6 -4.6 6 -8 6 C-7.67 6.99 -7.34 7.98 -7 9 C-4.36 9 -1.72 9 1 9 C1 9.66 1 10.32 1 11 C-1.79870027 12.39935013 -3.90498792 12.25265405 -7 12 C-8.875 10.9375 -8.875 10.9375 -10 9 C-10.4375 5.5 -10.4375 5.5 -10 2 C-7.01983499 -1.66789539 -4.31348256 -1.31279904 0 0 Z " fill="#FF7569" transform="translate(295,145)"/>
<path d="M0 0 C2 3 2 3 2 6 C-1.3 6 -4.6 6 -8 6 C-7.67 6.99 -7.34 7.98 -7 9 C-4.36 9 -1.72 9 1 9 C1 9.66 1 10.32 1 11 C-1.79870027 12.39935013 -3.90498792 12.25265405 -7 12 C-8.875 10.9375 -8.875 10.9375 -10 9 C-10.4375 5.5 -10.4375 5.5 -10 2 C-7.01983499 -1.66789539 -4.31348256 -1.31279904 0 0 Z " fill="#FF7569" transform="translate(220,145)"/>
<path d="M0 0 C0.99 0.33 1.98 0.66 3 1 C4.4540625 0.7525 4.4540625 0.7525 5.9375 0.5 C8.93049013 0.01134855 10.17496329 0.27095827 13 1 C14.2684375 0.7215625 14.2684375 0.7215625 15.5625 0.4375 C18 0 18 0 21 2 C21.29296875 4.6015625 21.29296875 4.6015625 21.1875 7.625 C21.16042969 8.62789062 21.13335937 9.63078125 21.10546875 10.6640625 C21.07066406 11.43492187 21.03585938 12.20578125 21 13 C20.67 13 20.34 13 20 13 C19.67 10.03 19.34 7.06 19 4 C17.34385343 3.61781233 15.67542976 3.28604898 14 3 C12.41727399 4.58272601 12.65264253 6.38034003 12.4375 8.5625 C12.35371094 9.38878906 12.26992187 10.21507812 12.18359375 11.06640625 C12.12300781 11.70449219 12.06242188 12.34257812 12 13 C11.34 13 10.68 13 10 13 C9.67 9.7 9.34 6.4 9 3 C7.35 3 5.7 3 4 3 C2.41727399 4.58272601 2.65264253 6.38034003 2.4375 8.5625 C2.35371094 9.38878906 2.26992187 10.21507812 2.18359375 11.06640625 C2.12300781 11.70449219 2.06242188 12.34257812 2 13 C1.34 13 0.68 13 0 13 C0 8.71 0 4.42 0 0 Z " fill="#FF8470" transform="translate(185,144)"/>
<path d="M0 0 C7.5261324 -0.12543554 7.5261324 -0.12543554 10.125 0.5625 C12.19289695 1.18253843 12.19289695 1.18253843 15.0625 0.375 C18 0 18 0 19.671875 1.15234375 C21.4425951 3.61572789 21.30443351 5.18620658 21.1875 8.1875 C21.16042969 9.08855469 21.13335937 9.98960937 21.10546875 10.91796875 C21.07066406 11.60503906 21.03585938 12.29210937 21 13 C20.34 13 19.68 13 19 13 C18.505 8.05 18.505 8.05 18 3 C16.35 3 14.7 3 13 3 C11.41727399 4.58272601 11.65264253 6.38034003 11.4375 8.5625 C11.35371094 9.38878906 11.26992187 10.21507812 11.18359375 11.06640625 C11.12300781 11.70449219 11.06242188 12.34257812 11 13 C10.67 13 10.34 13 10 13 C9.67 10.03 9.34 7.06 9 4 C7.34385343 3.61781233 5.67542976 3.28604898 4 3 C2.41727399 4.58272601 2.65264253 6.38034003 2.4375 8.5625 C2.35371094 9.38878906 2.26992187 10.21507812 2.18359375 11.06640625 C2.12300781 11.70449219 2.06242188 12.34257812 2 13 C1.34 13 0.68 13 0 13 C0 8.71 0 4.42 0 0 Z " fill="#FF7568" transform="translate(160,144)"/>
<path d="M0 0 C0.66 0 1.32 0 2 0 C3.00460531 2.12282669 4.00355602 4.24833021 5 6.375 C5.556875 7.55835938 6.11375 8.74171875 6.6875 9.9609375 C8 13 8 13 8 15 C7.34 15 6.68 15 6 15 C5.67 14.01 5.34 13.02 5 12 C2.03 11.67 -0.94 11.34 -4 11 C-4.33 12.32 -4.66 13.64 -5 15 C-5.66 14.67 -6.32 14.34 -7 14 C-4.69 9.38 -2.38 4.76 0 0 Z " fill="#898086" transform="translate(593,49)"/>
<path d="M0 0 C2.875 1.4375 2.875 1.4375 5 4 C5.71555259 7.14496906 5.70993955 9.85433287 5 13 C2.33120085 16.31578076 0.68392436 16.89008359 -3.5 17.5625 C-7 17 -7 17 -9.9375 14.9375 C-12.52001338 11.25937488 -12.72125695 9.40768137 -12 5 C-8.47403586 0.53377875 -5.6371593 -0.55266268 0 0 Z M-8.9375 3.0625 C-10.6140629 6.11976176 -10.36528977 8.5906288 -10 12 C-9.14780077 14.10242444 -9.14780077 14.10242444 -7 15 C-4.24171641 15.45971393 -1.7529909 15.51618579 1 15 C3.45636081 12.92744557 3.88864581 11.63630966 4.4375 8.5 C4.15663659 5.89230696 4.15663659 5.89230696 2.4375 3.6875 C-1.24319454 1.13932686 -4.95396605 0.87798138 -8.9375 3.0625 Z " fill="#FF7766" transform="translate(88,140)"/>
<path d="M0 0 C1.7325 0.1546875 1.7325 0.1546875 3.5 0.3125 C5.5 3.3125 5.5 3.3125 5.5 6.3125 C2.53 6.3125 -0.44 6.3125 -3.5 6.3125 C-2.51 7.7975 -2.51 7.7975 -1.5 9.3125 C1.58365871 9.5627157 1.58365871 9.5627157 4.5 9.3125 C4.17 9.9725 3.84 10.6325 3.5 11.3125 C-1.9 11.6725 -1.9 11.6725 -4.375 10.1875 C-6.00531294 7.47031176 -5.83015665 5.41597254 -5.5 2.3125 C-3.5 0.3125 -3.5 0.3125 0 0 Z " fill="#858187" transform="translate(476.5,563.6875)"/>
<path d="M0 0 C1.7325 0.1546875 1.7325 0.1546875 3.5 0.3125 C5.5 3.3125 5.5 3.3125 5.5 6.3125 C2.53 6.3125 -0.44 6.3125 -3.5 6.3125 C-2.51 7.7975 -2.51 7.7975 -1.5 9.3125 C1.58365871 9.5627157 1.58365871 9.5627157 4.5 9.3125 C4.17 9.9725 3.84 10.6325 3.5 11.3125 C-1.9 11.6725 -1.9 11.6725 -4.375 10.1875 C-6.00531294 7.47031176 -5.83015665 5.41597254 -5.5 2.3125 C-3.5 0.3125 -3.5 0.3125 0 0 Z " fill="#858187" transform="translate(296.5,524.6875)"/>
<path d="M0 0 C0.66 0.33 1.32 0.66 2 1 C2 1.66 2 2.32 2 3 C-0.97 3 -3.94 3 -7 3 C-7 3.99 -7 4.98 -7 6 C-2.545 7.98 -2.545 7.98 2 10 C2.125 12.375 2.125 12.375 2 15 C0 17 0 17 -1.875 17.23046875 C-2.57625 17.21628906 -3.2775 17.20210937 -4 17.1875 C-4.70125 17.18105469 -5.4025 17.17460937 -6.125 17.16796875 C-8 17 -8 17 -10 16 C-10 15.34 -10 14.68 -10 14 C-6.7 14.33 -3.4 14.66 0 15 C-0.33 13.68 -0.66 12.36 -1 11 C-2.82747971 10.04978234 -2.82747971 10.04978234 -5 9.5625 C-7.17578125 8.84765625 -7.17578125 8.84765625 -9 8 C-10.1875 5.5 -10.1875 5.5 -10 3 C-7.76675821 -1.04775074 -4.16574288 -0.30296312 0 0 Z " fill="#FF8372" transform="translate(138,140)"/>
<path d="M0 0 C3.375 -0.125 3.375 -0.125 7 0 C9 2 9 2 9.1953125 4.1640625 C9.13020833 6.44270833 9.06510417 8.72135417 9 11 C6.03 11 3.06 11 0 11 C-0.38218767 9.34385343 -0.71395102 7.67542976 -1 6 C0 5 0 5 3.5625 4.9375 C4.696875 4.958125 5.83125 4.97875 7 5 C6.67 4.01 6.34 3.02 6 2 C3.69 2 1.38 2 -1 2 C-0.67 1.34 -0.34 0.68 0 0 Z " fill="#8A8992" transform="translate(421,564)"/>
<path d="M0 0 C0.66 0 1.32 0 2 0 C2.33 3.3 2.66 6.6 3 10 C4.65 10 6.3 10 8 10 C8.33 6.7 8.66 3.4 9 0 C9.99 0 10.98 0 12 0 C12 4.29 12 8.58 12 13 C10.68 13 9.36 13 8 13 C6.453125 13.061875 6.453125 13.061875 4.875 13.125 C2 13 2 13 0 11 C-0.1953125 8.3984375 -0.1953125 8.3984375 -0.125 5.375 C-0.10695312 4.37210938 -0.08890625 3.36921875 -0.0703125 2.3359375 C-0.04710937 1.56507813 -0.02390625 0.79421875 0 0 Z " fill="#FF8A88" transform="translate(144,144)"/>
<path d="M0 0 C3.375 -0.125 3.375 -0.125 7 0 C9 2 9 2 9.1953125 4.1640625 C9.13020833 6.44270833 9.06510417 8.72135417 9 11 C6.03 11 3.06 11 0 11 C-0.38218767 9.34385343 -0.71395102 7.67542976 -1 6 C0 5 0 5 3.5625 4.9375 C4.696875 4.958125 5.83125 4.97875 7 5 C6.67 4.01 6.34 3.02 6 2 C3.69 2 1.38 2 -1 2 C-0.67 1.34 -0.34 0.68 0 0 Z " fill="#8A8992" transform="translate(992,53)"/>
<path d="M0 0 C2.97922593 -0.02683987 5.95821295 -0.04676037 8.9375 -0.0625 C9.78763672 -0.07087891 10.63777344 -0.07925781 11.51367188 -0.08789062 C12.32255859 -0.09111328 13.13144531 -0.09433594 13.96484375 -0.09765625 C14.7137085 -0.10289307 15.46257324 -0.10812988 16.23413086 -0.11352539 C18 0 18 0 19 1 C19.07205511 2.68608966 19.08386068 4.37500659 19.0625 6.0625 C19.05347656 6.98160156 19.04445313 7.90070312 19.03515625 8.84765625 C19.02355469 9.55792969 19.01195313 10.26820313 19 11 C18.67 11 18.34 11 18 11 C17.67 8.36 17.34 5.72 17 3 C14.92446352 2.4465236 13.15634036 2 11 2 C11 4.97 11 7.94 11 11 C10.34 11 9.68 11 9 11 C8.67 8.03 8.34 5.06 8 2 C6.35 2.33 4.7 2.66 3 3 C2.67 5.64 2.34 8.28 2 11 C1.34 11 0.68 11 0 11 C0 7.37 0 3.74 0 0 Z " fill="#7E7D8A" transform="translate(102,564)"/>
<path d="M0 0 C2.97922593 -0.02683987 5.95821295 -0.04676037 8.9375 -0.0625 C9.78763672 -0.07087891 10.63777344 -0.07925781 11.51367188 -0.08789062 C12.32255859 -0.09111328 13.13144531 -0.09433594 13.96484375 -0.09765625 C14.7137085 -0.10289307 15.46257324 -0.10812988 16.23413086 -0.11352539 C18 0 18 0 19 1 C19.07205511 2.68608966 19.08386068 4.37500659 19.0625 6.0625 C19.05347656 6.98160156 19.04445313 7.90070312 19.03515625 8.84765625 C19.02355469 9.55792969 19.01195312 10.26820312 19 11 C18.67 11 18.34 11 18 11 C17.67 8.36 17.34 5.72 17 3 C14.92446352 2.4465236 13.15634036 2 11 2 C11 4.97 11 7.94 11 11 C10.34 11 9.68 11 9 11 C8.67 8.03 8.34 5.06 8 2 C6.35 2.33 4.7 2.66 3 3 C2.67 5.64 2.34 8.28 2 11 C1.34 11 0.68 11 0 11 C0 7.37 0 3.74 0 0 Z " fill="#7E7D8A" transform="translate(475,53)"/>
<path d="M0 0 C3 0.25 3 0.25 5 2.25 C5 3.57 5 4.89 5 6.25 C2.03 6.25 -0.94 6.25 -4 6.25 C-1.38789731 9.5182814 -1.38789731 9.5182814 1.6875 9.4375 C2.450625 9.375625 3.21375 9.31375 4 9.25 C3.67 9.91 3.34 10.57 3 11.25 C0.1875 11.5 0.1875 11.5 -3 11.25 C-4.9375 9.5625 -4.9375 9.5625 -6 7.25 C-5.67747519 2.7346526 -4.81889451 0.40157454 0 0 Z " fill="#857E80" transform="translate(514,563.75)"/>
<path d="M0 0 C1.5675 -0.061875 3.135 -0.12375 4.75 -0.1875 C6.07257813 -0.23970703 6.07257813 -0.23970703 7.421875 -0.29296875 C10.52351115 0.0594899 11.82221815 0.78225885 14 3 C14.54889545 7.32255167 14.71716742 9.69605923 12.625 13.5 C8.46285285 15.8783698 4.74014469 15.2494813 0 15 C0 10.05 0 5.1 0 0 Z M2 1 C2 5.29 2 9.58 2 14 C7.67166226 14.46961297 7.67166226 14.46961297 10.9375 12.4375 C13.38114082 10.07080815 13.38114082 10.07080815 13.0625 6.375 C12.33797314 3.03000044 12.33797314 3.03000044 10.3125 1.5625 C7.42498725 0.76364842 7.42498725 0.76364842 2 1 Z " fill="#8C8385" transform="translate(77,521)"/>
<path d="M0 0 C3 0.25 3 0.25 5 2.25 C5 3.57 5 4.89 5 6.25 C2.03 6.25 -0.94 6.25 -4 6.25 C-1.38789731 9.5182814 -1.38789731 9.5182814 1.6875 9.4375 C2.450625 9.375625 3.21375 9.31375 4 9.25 C3.67 9.91 3.34 10.57 3 11.25 C0.1875 11.5 0.1875 11.5 -3 11.25 C-4.9375 9.5625 -4.9375 9.5625 -6 7.25 C-5.67747519 2.7346526 -4.81889451 0.40157454 0 0 Z " fill="#857E80" transform="translate(503,52.75)"/>
<path d="M0 0 C0.66 0 1.32 0 2 0 C3.43581474 1.61457079 4.80144783 3.29219075 6.125 5 C6.84945312 5.928125 7.57390625 6.85625 8.3203125 7.8125 C8.87460937 8.534375 9.42890625 9.25625 10 10 C10.33 6.7 10.66 3.4 11 0 C11.66 0 12.32 0 13 0 C13 4.95 13 9.9 13 15 C7.59936566 12.29968283 5.58713322 8.82883318 2 4 C1.67 7.63 1.34 11.26 1 15 C0.67 15 0.34 15 0 15 C0 10.05 0 5.1 0 0 Z " fill="#847A7E" transform="translate(249,521)"/>
<path d="M0 0 C3 0.25 3 0.25 5 2.25 C5 3.57 5 4.89 5 6.25 C2.03 6.25 -0.94 6.25 -4 6.25 C-1.32958675 9.58477709 -1.32958675 9.58477709 2.1875 9.4375 C3.115625 9.375625 4.04375 9.31375 5 9.25 C3 11.25 3 11.25 0 11.5 C-3 11.25 -3 11.25 -5 9.25 C-5.25 5.75 -5.25 5.75 -5 2.25 C-3 0.25 -3 0.25 0 0 Z " fill="#827B7F" transform="translate(152,524.75)"/>
<path d="M0 0 C2.33294775 -0.04241723 4.66702567 -0.04092937 7 0 C8 1 8 1 8.09765625 3.28515625 C8.08605469 4.20167969 8.07445312 5.11820313 8.0625 6.0625 C8.05347656 6.98160156 8.04445313 7.90070312 8.03515625 8.84765625 C8.02355469 9.55792969 8.01195312 10.26820313 8 11 C5.36 11 2.72 11 0 11 C-0.38218767 9.34385343 -0.71395102 7.67542976 -1 6 C0 5 0 5 3.5625 4.9375 C4.696875 4.958125 5.83125 4.97875 7 5 C7 4.01 7 3.02 7 2 C4.36 2 1.72 2 -1 2 C-0.67 1.34 -0.34 0.68 0 0 Z " fill="#7E7B80" transform="translate(277,564)"/>
<path d="M0 0 C2.33294775 -0.04241723 4.66702567 -0.04092937 7 0 C8 1 8 1 8.09765625 3.28515625 C8.08605469 4.20167969 8.07445312 5.11820313 8.0625 6.0625 C8.05347656 6.98160156 8.04445313 7.90070312 8.03515625 8.84765625 C8.02355469 9.55792969 8.01195312 10.26820313 8 11 C5.36 11 2.72 11 0 11 C-0.38218767 9.34385343 -0.71395102 7.67542976 -1 6 C0 5 0 5 3.5625 4.9375 C4.696875 4.958125 5.83125 4.97875 7 5 C7 4.01 7 3.02 7 2 C4.36 2 1.72 2 -1 2 C-0.67 1.34 -0.34 0.68 0 0 Z " fill="#7E7B80" transform="translate(358,525)"/>
<path d="M0 0 C2.33294775 -0.04241723 4.66702567 -0.04092937 7 0 C8 1 8 1 8.09765625 3.28515625 C8.08605469 4.20167969 8.07445312 5.11820313 8.0625 6.0625 C8.05347656 6.98160156 8.04445313 7.90070312 8.03515625 8.84765625 C8.02355469 9.55792969 8.01195312 10.26820313 8 11 C5.36 11 2.72 11 0 11 C-0.38218767 9.34385343 -0.71395102 7.67542976 -1 6 C0 5 0 5 3.5625 4.9375 C4.696875 4.958125 5.83125 4.97875 7 5 C7 4.01 7 3.02 7 2 C4.36 2 1.72 2 -1 2 C-0.67 1.34 -0.34 0.68 0 0 Z " fill="#7E7B80" transform="translate(311,525)"/>
<path d="M0 0 C3.375 0.9375 3.375 0.9375 5.375 3.9375 C5.70002803 7.05776907 5.88651479 9.08497535 4.25 11.8125 C1.45053259 13.49218045 -0.42304064 13.39492277 -3.625 12.9375 C-6.4162125 10.95427007 -7.45097224 9.80763879 -8.125 6.4375 C-7.12997193 1.46235967 -5.00784378 -0.08634213 0 0 Z M-5.625 3.9375 C-5.95833333 6.4375 -5.95833333 6.4375 -5.625 8.9375 C-3.73392859 11.27028733 -3.73392859 11.27028733 -0.5625 11.125 C2.26333136 11.26937793 2.26333136 11.26937793 3.375 9.9375 C3.62505386 6.97932893 3.62505386 6.97932893 3.375 3.9375 C1.54796773 1.6883092 1.54796773 1.6883092 -1.125 1.6875 C-3.79796773 1.6883092 -3.79796773 1.6883092 -5.625 3.9375 Z " fill="#FF7A6E" transform="translate(336.625,144.0625)"/>
<path d="M0 0 C3 0.8125 3 0.8125 4.9375 1.9375 C6.69646638 5.04155831 5.84936588 7.47570548 5 10.8125 C1.52957297 13.12611802 0.08165827 13.32270728 -4 12.8125 C-5.9375 11.25 -5.9375 11.25 -7 8.8125 C-6.875 5.1875 -6.875 5.1875 -6 1.8125 C-3 -0.1875 -3 -0.1875 0 0 Z M-5 3.8125 C-5.25005386 6.85432893 -5.25005386 6.85432893 -5 9.8125 C-3.88833136 11.14437793 -3.88833136 11.14437793 -1.0625 11 C2.10892859 11.14528733 2.10892859 11.14528733 4 8.8125 C4.33333333 6.3125 4.33333333 6.3125 4 3.8125 C2.17296773 1.5633092 2.17296773 1.5633092 -0.5 1.5625 C-3.17296773 1.5633092 -3.17296773 1.5633092 -5 3.8125 Z " fill="#FF7F7F" transform="translate(264,144.1875)"/>
<path d="M0 0 C0.99 0.33 1.98 0.66 3 1 C3.99 0.79375 4.98 0.5875 6 0.375 C9 0 9 0 10.67578125 1.15234375 C12.44139403 3.61586837 12.30433131 5.18882975 12.1875 8.1875 C12.16042969 9.08855469 12.13335937 9.98960937 12.10546875 10.91796875 C12.07066406 11.60503906 12.03585937 12.29210937 12 13 C11.34 13 10.68 13 10 13 C9.67 9.7 9.34 6.4 9 3 C7.35 3 5.7 3 4 3 C2.41727399 4.58272601 2.65264253 6.38034003 2.4375 8.5625 C2.35371094 9.38878906 2.26992188 10.21507812 2.18359375 11.06640625 C2.12300781 11.70449219 2.06242187 12.34257812 2 13 C1.34 13 0.68 13 0 13 C0 8.71 0 4.42 0 0 Z " fill="#FF8E71" transform="translate(345,144)"/>
<path d="M0 0 C0.66 0 1.32 0 2 0 C2.33 2.97 2.66 5.94 3 9 C4.65 7.68 6.3 6.36 8 5 C8.66 5.33 9.32 5.66 10 6 C9.01 7.32 8.02 8.64 7 10 C8.98 12.97 8.98 12.97 11 16 C9.0625 15.1875 9.0625 15.1875 7 14 C6.67 13.01 6.34 12.02 6 11 C4.68 11.33 3.36 11.66 2 12 C2 13.32 2 14.64 2 16 C1.34 16 0.68 16 0 16 C0 10.72 0 5.44 0 0 Z " fill="#A88E88" transform="translate(279,520)"/>
<path d="M0 0 C4.55555556 0.55555556 4.55555556 0.55555556 6 2 C6.25 4.4375 6.25 4.4375 6 7 C3 9 3 9 0.875 8.6875 C-1 8 -1 8 -2 7 C-2.1875 4.5625 -2.1875 4.5625 -2 2 C-1.34 1.34 -0.68 0.68 0 0 Z " fill="#F9F9F3" transform="translate(805,54)"/>
<path d="M0 0 C6.8359375 -0.1953125 6.8359375 -0.1953125 9 0 C11 2 11 2 11.1953125 4.1640625 C11.17210937 4.97617187 11.14890625 5.78828125 11.125 6.625 C11.10695313 7.44226562 11.08890625 8.25953125 11.0703125 9.1015625 C11.03550781 10.04128906 11.03550781 10.04128906 11 11 C10.34 11 9.68 11 9 11 C8.67 8.03 8.34 5.06 8 2 C6.35 2.33 4.7 2.66 3 3 C2.67 5.64 2.34 8.28 2 11 C1.34 11 0.68 11 0 11 C0 7.37 0 3.74 0 0 Z " fill="#8F7E80" transform="translate(968,53)"/>
<path d="M0 0 C6.8359375 -0.1953125 6.8359375 -0.1953125 9 0 C11 2 11 2 11.1953125 4.1640625 C11.17210937 4.97617187 11.14890625 5.78828125 11.125 6.625 C11.10695312 7.44226563 11.08890625 8.25953125 11.0703125 9.1015625 C11.03550781 10.04128906 11.03550781 10.04128906 11 11 C10.34 11 9.68 11 9 11 C8.67 8.03 8.34 5.06 8 2 C6.02 2 4.04 2 2 2 C2 4.97 2 7.94 2 11 C1.34 11 0.68 11 0 11 C0 7.37 0 3.74 0 0 Z " fill="#868594" transform="translate(182,564)"/>
<path d="M0 0 C0.9075 0.28875 1.815 0.5775 2.75 0.875 C3.08 1.535 3.41 2.195 3.75 2.875 C2.450625 2.854375 1.15125 2.83375 -0.1875 2.8125 C-1.54165633 2.79100546 -2.89756083 2.80351801 -4.25 2.875 C-5.53322547 3.9345877 -5.53322547 3.9345877 -5.375 6.375 C-5.53322547 8.8154123 -5.53322547 8.8154123 -4.25 9.875 C-1.91702567 9.91592937 0.41705225 9.91741723 2.75 9.875 C2.42 10.865 2.09 11.855 1.75 12.875 C-1.82763189 13.20023926 -3.64542581 13.30456587 -6.625 11.1875 C-8.25 8.875 -8.25 8.875 -8.8125 6.375 C-8.25 3.875 -8.25 3.875 -6.125 1.5 C-3.25 -0.125 -3.25 -0.125 0 0 Z " fill="#FF8173" transform="translate(307.25,144.125)"/>
<path d="M0 0 C0.99 0 1.98 0 3 0 C3 5.28 3 10.56 3 16 C2.01 16 1.02 16 0 16 C0 10.72 0 5.44 0 0 Z " fill="#FF6857" transform="translate(188,50)"/>
<path d="M0 0 C3.5 0.25 3.5 0.25 5.5 2.25 C5.75 5.75 5.75 5.75 5.5 9.25 C3.5 11.25 3.5 11.25 0.5625 11.5625 C-2.5 11.25 -2.5 11.25 -4.375 10.125 C-6.00531294 7.40781176 -5.83015665 5.35347254 -5.5 2.25 C-3.5 0.25 -3.5 0.25 0 0 Z M-1.5 1.25 C-3.7491908 3.07703227 -3.7491908 3.07703227 -3.75 5.75 C-3.7491908 8.42296773 -3.7491908 8.42296773 -1.5 10.25 C1.80683466 9.96016731 1.80683466 9.96016731 4.5 8.25 C4.7500773 5.79190002 4.7500773 5.79190002 4.5 3.25 C3.84 2.59 3.18 1.93 2.5 1.25 C1.18 1.25 -0.14 1.25 -1.5 1.25 Z " fill="#7E797F" transform="translate(308.5,563.75)"/>
<path d="M0 0 C3.5 0.25 3.5 0.25 5.5 2.25 C5.75 5.75 5.75 5.75 5.5 9.25 C3.5 11.25 3.5 11.25 0.5625 11.5625 C-2.5 11.25 -2.5 11.25 -4.375 10.125 C-6.00531294 7.40781176 -5.83015665 5.35347254 -5.5 2.25 C-3.5 0.25 -3.5 0.25 0 0 Z M-1.5 1.25 C-3.7491908 3.07703227 -3.7491908 3.07703227 -3.75 5.75 C-3.7491908 8.42296773 -3.7491908 8.42296773 -1.5 10.25 C1.80683466 9.96016731 1.80683466 9.96016731 4.5 8.25 C4.7500773 5.79190002 4.7500773 5.79190002 4.5 3.25 C3.84 2.59 3.18 1.93 2.5 1.25 C1.18 1.25 -0.14 1.25 -1.5 1.25 Z " fill="#7E797F" transform="translate(256.5,563.75)"/>
<path d="M0 0 C3.5 0.25 3.5 0.25 5.5 2.25 C5.75 5.75 5.75 5.75 5.5 9.25 C3.5 11.25 3.5 11.25 0.5625 11.5625 C-2.5 11.25 -2.5 11.25 -4.375 10.125 C-6.00531294 7.40781176 -5.83015665 5.35347254 -5.5 2.25 C-3.5 0.25 -3.5 0.25 0 0 Z M-1.5 1.25 C-3.7491908 3.07703227 -3.7491908 3.07703227 -3.75 5.75 C-3.7491908 8.42296773 -3.7491908 8.42296773 -1.5 10.25 C1.80683466 9.96016731 1.80683466 9.96016731 4.5 8.25 C4.7500773 5.79190002 4.7500773 5.79190002 4.5 3.25 C3.84 2.59 3.18 1.93 2.5 1.25 C1.18 1.25 -0.14 1.25 -1.5 1.25 Z " fill="#7E797F" transform="translate(127.5,524.75)"/>
<path d="M0 0 C2.34058637 2.12780579 3.70700306 4.11562221 5 7 C6.32 4.69 7.64 2.38 9 0 C9.66 0 10.32 0 11 0 C9.63408831 3.54243452 8.09068516 6.92627929 6.375 10.3125 C5.92898438 11.19550781 5.48296875 12.07851563 5.0234375 12.98828125 C4.68570312 13.65214844 4.34796875 14.31601562 4 15 C2.35 15 0.7 15 -1 15 C-0.67 14.34 -0.34 13.68 0 13 C0.99 13 1.98 13 3 13 C2.45144652 8.428721 1.58255197 4.32564205 0 0 Z " fill="#8A8590" transform="translate(461,525)"/>
<path d="M0 0 C0.66 0 1.32 0 2 0 C2 0.66 2 1.32 2 2 C3.32 2 4.64 2 6 2 C6 2.66 6 3.32 6 4 C4.68 4 3.36 4 2 4 C2.08708669 5.45945288 2.19526907 6.91765868 2.3125 8.375 C2.37050781 9.18710938 2.42851562 9.99921875 2.48828125 10.8359375 C2.82990528 13.37921338 2.82990528 13.37921338 6 15 C1.125 14.125 1.125 14.125 0 13 C-0.07179964 11.48071962 -0.08392007 9.95832518 -0.0625 8.4375 C-0.05347656 7.61121094 -0.04445313 6.78492188 -0.03515625 5.93359375 C-0.02355469 5.29550781 -0.01195312 4.65742188 0 4 C-0.66 4 -1.32 4 -2 4 C-2 3.34 -2 2.68 -2 2 C-1.34 2 -0.68 2 0 2 C0 1.34 0 0.68 0 0 Z " fill="#FF8A6F" transform="translate(314,142)"/>
<path d="M0 0 C2.33294775 -0.04241723 4.66702567 -0.04092937 7 0 C8 1 8 1 8.09765625 3.28515625 C8.08605469 4.20167969 8.07445312 5.11820313 8.0625 6.0625 C8.05347656 6.98160156 8.04445312 7.90070312 8.03515625 8.84765625 C8.02355469 9.55792969 8.01195312 10.26820313 8 11 C7.01 10.67 6.02 10.34 5 10 C5.33 8.68 5.66 7.36 6 6 C4.02 6 2.04 6 0 6 C0.33 5.34 0.66 4.68 1 4 C2.65 4 4.3 4 6 4 C5.67 3.34 5.34 2.68 5 2 C3.02 2 1.04 2 -1 2 C-0.67 1.34 -0.34 0.68 0 0 Z " fill="#91898D" transform="translate(170,564)"/>
<path d="M0 0 C1.134375 0.020625 2.26875 0.04125 3.4375 0.0625 C3.4375 0.3925 3.4375 0.7225 3.4375 1.0625 C1.4575 1.0625 -0.5225 1.0625 -2.5625 1.0625 C-2.5625 2.0525 -2.5625 3.0425 -2.5625 4.0625 C-0.2525 4.7225 2.0575 5.3825 4.4375 6.0625 C4.1075 7.7125 3.7775 9.3625 3.4375 11.0625 C1.1275 11.0625 -1.1825 11.0625 -3.5625 11.0625 C-3.8925 10.4025 -4.2225 9.7425 -4.5625 9.0625 C-2.5825 9.0625 -0.6025 9.0625 1.4375 9.0625 C1.4375 8.4025 1.4375 7.7425 1.4375 7.0625 C0.633125 6.815 -0.17125 6.5675 -1 6.3125 C-3.5625 5.0625 -3.5625 5.0625 -4.4375 3 C-4.47875 2.360625 -4.52 1.72125 -4.5625 1.0625 C-3.5625 0.0625 -3.5625 0.0625 0 0 Z " fill="#8C8584" transform="translate(220.5625,524.9375)"/>
<path d="M0 0 C2.33294775 -0.04241723 4.66702567 -0.04092937 7 0 C8 1 8 1 8.09765625 3.28515625 C8.08605469 4.20167969 8.07445312 5.11820313 8.0625 6.0625 C8.05347656 6.98160156 8.04445313 7.90070312 8.03515625 8.84765625 C8.02355469 9.55792969 8.01195312 10.26820313 8 11 C7.01 10.67 6.02 10.34 5 10 C5.33 8.68 5.66 7.36 6 6 C4.02 6 2.04 6 0 6 C0.33 5.34 0.66 4.68 1 4 C2.65 4 4.3 4 6 4 C5.67 3.34 5.34 2.68 5 2 C3.02 2 1.04 2 -1 2 C-0.67 1.34 -0.34 0.68 0 0 Z " fill="#91898D" transform="translate(430,525)"/>
<path d="M0 0 C1.134375 0.020625 2.26875 0.04125 3.4375 0.0625 C3.4375 0.3925 3.4375 0.7225 3.4375 1.0625 C1.4575 1.0625 -0.5225 1.0625 -2.5625 1.0625 C-2.5625 2.0525 -2.5625 3.0425 -2.5625 4.0625 C-0.2525 4.7225 2.0575 5.3825 4.4375 6.0625 C4.1075 7.7125 3.7775 9.3625 3.4375 11.0625 C1.1275 11.0625 -1.1825 11.0625 -3.5625 11.0625 C-3.8925 10.4025 -4.2225 9.7425 -4.5625 9.0625 C-2.5825 9.0625 -0.6025 9.0625 1.4375 9.0625 C1.4375 8.4025 1.4375 7.7425 1.4375 7.0625 C0.633125 6.815 -0.17125 6.5675 -1 6.3125 C-3.5625 5.0625 -3.5625 5.0625 -4.4375 3 C-4.47875 2.360625 -4.52 1.72125 -4.5625 1.0625 C-3.5625 0.0625 -3.5625 0.0625 0 0 Z " fill="#8C8584" transform="translate(1051.5625,52.9375)"/>
<path d="M0 0 C1.134375 0.020625 2.26875 0.04125 3.4375 0.0625 C3.4375 0.3925 3.4375 0.7225 3.4375 1.0625 C1.4575 1.0625 -0.5225 1.0625 -2.5625 1.0625 C-2.5625 2.0525 -2.5625 3.0425 -2.5625 4.0625 C-0.2525 4.7225 2.0575 5.3825 4.4375 6.0625 C4.1075 7.7125 3.7775 9.3625 3.4375 11.0625 C1.1275 11.0625 -1.1825 11.0625 -3.5625 11.0625 C-3.8925 10.4025 -4.2225 9.7425 -4.5625 9.0625 C-2.5825 9.0625 -0.6025 9.0625 1.4375 9.0625 C1.4375 8.4025 1.4375 7.7425 1.4375 7.0625 C0.633125 6.815 -0.17125 6.5675 -1 6.3125 C-3.5625 5.0625 -3.5625 5.0625 -4.4375 3 C-4.47875 2.360625 -4.52 1.72125 -4.5625 1.0625 C-3.5625 0.0625 -3.5625 0.0625 0 0 Z " fill="#8C8584" transform="translate(855.5625,52.9375)"/>
<path d="M0 0 C2.0625 0.4375 2.0625 0.4375 4 1 C3.01 1.33 2.02 1.66 1 2 C0.67 2.99 0.34 3.98 0 5 C0.99 5.33 1.98 5.66 3 6 C2.01 6 1.02 6 0 6 C0 9.3 0 12.6 0 16 C-0.66 16 -1.32 16 -2 16 C-2 12.7 -2 9.4 -2 6 C-2.66 5.67 -3.32 5.34 -4 5 C-3.34 5 -2.68 5 -2 5 C-1.7834375 4.0409375 -1.7834375 4.0409375 -1.5625 3.0625 C-1 1 -1 1 0 0 Z " fill="#8F7F80" transform="translate(504,559)"/>
<path d="M0 0 C2.0625 0.4375 2.0625 0.4375 4 1 C3.01 1.33 2.02 1.66 1 2 C0.67 2.99 0.34 3.98 0 5 C0.99 5.33 1.98 5.66 3 6 C2.01 6 1.02 6 0 6 C0 9.3 0 12.6 0 16 C-0.66 16 -1.32 16 -2 16 C-2 12.7 -2 9.4 -2 6 C-2.66 5.67 -3.32 5.34 -4 5 C-3.34 5 -2.68 5 -2 5 C-1.7834375 4.0409375 -1.7834375 4.0409375 -1.5625 3.0625 C-1 1 -1 1 0 0 Z " fill="#8F7F80" transform="translate(334,559)"/>
<path d="M0 0 C0.66 0 1.32 0 2 0 C2 0.99 2 1.98 2 3 C2.99 3.33 3.98 3.66 5 4 C4.01 4 3.02 4 2 4 C2.33 6.64 2.66 9.28 3 12 C3.99 12 4.98 12 6 12 C6 12.66 6 13.32 6 14 C4.33388095 14.042721 2.66617115 14.04063832 1 14 C0 13 0 13 -0.09765625 10.93359375 C-0.08025391 9.69802734 -0.08025391 9.69802734 -0.0625 8.4375 C-0.05347656 7.61121094 -0.04445313 6.78492188 -0.03515625 5.93359375 C-0.02355469 5.29550781 -0.01195312 4.65742187 0 4 C-0.66 3.67 -1.32 3.34 -2 3 C-1.34 3 -0.68 3 0 3 C0 2.01 0 1.02 0 0 Z " fill="#8C828A" transform="translate(446,561)"/>
<path d="M0 0 C1.134375 0.020625 2.26875 0.04125 3.4375 0.0625 C3.7675 0.7225 4.0975 1.3825 4.4375 2.0625 C3.468125 2.041875 2.49875 2.02125 1.5 2 C-1.43715895 1.70631501 -1.43715895 1.70631501 -2.5625 3.0625 C-2.60313832 4.72867115 -2.605221 6.39638095 -2.5625 8.0625 C0.44781744 8.99673645 1.30400268 9.10699911 4.4375 8.0625 C4.1075 9.0525 3.7775 10.0425 3.4375 11.0625 C-1.91215035 11.41914336 -1.91215035 11.41914336 -4.5 10 C-6.19431173 6.91037273 -5.30201685 4.39032582 -4.5625 1.0625 C-3.5625 0.0625 -3.5625 0.0625 0 0 Z " fill="#85838B" transform="translate(115.5625,524.9375)"/>
<path d="M0 0 C0.66 0 1.32 0 2 0 C2 0.99 2 1.98 2 3 C2.99 3.33 3.98 3.66 5 4 C4.01 4 3.02 4 2 4 C2.33 6.64 2.66 9.28 3 12 C3.99 12 4.98 12 6 12 C6 12.66 6 13.32 6 14 C4.33388095 14.042721 2.66617115 14.04063832 1 14 C0 13 0 13 -0.09765625 10.93359375 C-0.08025391 9.69802734 -0.08025391 9.69802734 -0.0625 8.4375 C-0.05347656 7.61121094 -0.04445313 6.78492188 -0.03515625 5.93359375 C-0.02355469 5.29550781 -0.01195312 4.65742187 0 4 C-0.66 3.67 -1.32 3.34 -2 3 C-1.34 3 -0.68 3 0 3 C0 2.01 0 1.02 0 0 Z " fill="#8C828A" transform="translate(454,522)"/>
<path d="M0 0 C2.64 0 5.28 0 8 0 C7 2 7 2 4.984375 2.8359375 C2.78073016 3.82051218 2.78073016 3.82051218 2.390625 6.1640625 C2.34421875 6.97617188 2.2978125 7.78828125 2.25 8.625 C2.19328125 9.44226563 2.1365625 10.25953125 2.078125 11.1015625 C2.05234375 11.72804687 2.0265625 12.35453125 2 13 C1.34 13 0.68 13 0 13 C0 8.71 0 4.42 0 0 Z " fill="#FF7675" transform="translate(160,144)"/>
<path d="M0 0 C0.66 0 1.32 0 2 0 C2 0.99 2 1.98 2 3 C2.99 3.33 3.98 3.66 5 4 C4.01 4 3.02 4 2 4 C2.33 6.64 2.66 9.28 3 12 C3.99 12 4.98 12 6 12 C6 12.66 6 13.32 6 14 C4.33388095 14.042721 2.66617115 14.04063832 1 14 C0 13 0 13 -0.09765625 10.93359375 C-0.08025391 9.69802734 -0.08025391 9.69802734 -0.0625 8.4375 C-0.05347656 7.61121094 -0.04445313 6.78492188 -0.03515625 5.93359375 C-0.02355469 5.29550781 -0.01195312 4.65742187 0 4 C-0.66 3.67 -1.32 3.34 -2 3 C-1.34 3 -0.68 3 0 3 C0 2.01 0 1.02 0 0 Z " fill="#8C828A" transform="translate(1017,50)"/>
<path d="M0 0 C0.66 0 1.32 0 2 0 C2 0.99 2 1.98 2 3 C2.99 3.33 3.98 3.66 5 4 C4.01 4 3.02 4 2 4 C2.33 6.64 2.66 9.28 3 12 C3.99 12 4.98 12 6 12 C6 12.66 6 13.32 6 14 C4.33388095 14.042721 2.66617115 14.04063832 1 14 C0 13 0 13 -0.09765625 10.93359375 C-0.08025391 9.69802734 -0.08025391 9.69802734 -0.0625 8.4375 C-0.05347656 7.61121094 -0.04445313 6.78492188 -0.03515625 5.93359375 C-0.02355469 5.29550781 -0.01195312 4.65742187 0 4 C-0.66 3.67 -1.32 3.34 -2 3 C-1.34 3 -0.68 3 0 3 C0 2.01 0 1.02 0 0 Z " fill="#8C828A" transform="translate(983,50)"/>
<path d="M0 0 C0.66 0 1.32 0 2 0 C2 0.99 2 1.98 2 3 C2.99 3.33 3.98 3.66 5 4 C4.01 4 3.02 4 2 4 C2.33 6.64 2.66 9.28 3 12 C3.99 12 4.98 12 6 12 C6 12.66 6 13.32 6 14 C4.35 14 2.7 14 1 14 C-0.60725635 10.78548731 -0.05748185 7.56387464 0 4 C-0.66 3.67 -1.32 3.34 -2 3 C-1.34 3 -0.68 3 0 3 C0 2.01 0 1.02 0 0 Z " fill="#918281" transform="translate(155,561)"/>
<path d="M0 0 C4.455 1.98 4.455 1.98 9 4 C8.67 4.99 8.34 5.98 8 7 C5.69 7 3.38 7 1 7 C0.67 4.69 0.34 2.38 0 0 Z " fill="#F8F6F3" transform="translate(373,528)"/>
<path d="M0 0 C0.66 0 1.32 0 2 0 C2.99 2.31 3.98 4.62 5 7 C6.32 4.69 7.64 2.38 9 0 C9.66 0.33 10.32 0.66 11 1 C9.68 4.3 8.36 7.6 7 11 C6.01 11 5.02 11 4 11 C3.32880451 9.5437455 2.66318193 8.08492133 2 6.625 C1.62875 5.81289063 1.2575 5.00078125 0.875 4.1640625 C0 2 0 2 0 0 Z " fill="#908891" transform="translate(459,564)"/>
<path d="M0 0 C0.66 0 1.32 0 2 0 C2.33 3.3 2.66 6.6 3 10 C5.97 10.495 5.97 10.495 9 11 C8.67 11.66 8.34 12.32 8 13 C5.125 13.1875 5.125 13.1875 2 13 C-0.20914 9.68629 -0.22481553 8.6553979 -0.125 4.8125 C-0.10695313 3.91144531 -0.08890625 3.01039063 -0.0703125 2.08203125 C-0.04710938 1.39496094 -0.02390625 0.70789063 0 0 Z " fill="#FF7C74" transform="translate(97,144)"/>
<path d="M0 0 C2.33333333 0 4.66666667 0 7 0 C7 0.66 7 1.32 7 2 C6.35546875 2.23460937 5.7109375 2.46921875 5.046875 2.7109375 C2.7922092 3.81161073 2.7922092 3.81161073 2.390625 6.1640625 C2.34421875 6.97617188 2.2978125 7.78828125 2.25 8.625 C2.19328125 9.44226563 2.1365625 10.25953125 2.078125 11.1015625 C2.05234375 11.72804687 2.0265625 12.35453125 2 13 C1.34 13 0.68 13 0 13 C0 8.71 0 4.42 0 0 Z " fill="#FF8074" transform="translate(113,144)"/>
<path d="M0 0 C0.99 0.495 0.99 0.495 2 1 C2.73075648 3.3140622 3.40138258 5.64828869 4 8 C4.66 8 5.32 8 6 8 C6.103125 7.236875 6.20625 6.47375 6.3125 5.6875 C7.05790616 2.77363954 7.84458939 1.97049603 10 0 C9.52269162 1.4589426 9.04308958 2.91713496 8.5625 4.375 C8.29566406 5.18710937 8.02882813 5.99921875 7.75390625 6.8359375 C7 9 7 9 6 11 C5.01 10.67 4.02 10.34 3 10 C1.25327015 6.5065403 0 3.93154432 0 0 Z " fill="#8D858E" transform="translate(345,525)"/>
<path d="M0 0 C2.89932357 2.39509338 3.50168276 4.31245243 4 8 C4.66 8 5.32 8 6 8 C6.309375 7.05125 6.61875 6.1025 6.9375 5.125 C8 2 8 2 9 0 C9.66 0 10.32 0 11 0 C9.55049545 3.7910119 7.84827434 7.3874638 6 11 C5.34 11 4.68 11 4 11 C3.32880451 9.5437455 2.66318193 8.08492133 2 6.625 C1.62875 5.81289063 1.2575 5.00078125 0.875 4.1640625 C0 2 0 2 0 0 Z " fill="#8C8590" transform="translate(135,525)"/>
<path d="M0 0 C0.99 0.33 1.98 0.66 3 1 C5.14255793 0.61067144 5.14255793 0.61067144 7 0 C7 0.66 7 1.32 7 2 C6.35546875 2.23460937 5.7109375 2.46921875 5.046875 2.7109375 C2.7922092 3.81161073 2.7922092 3.81161073 2.390625 6.1640625 C2.34421875 6.97617188 2.2978125 7.78828125 2.25 8.625 C2.19328125 9.44226563 2.1365625 10.25953125 2.078125 11.1015625 C2.05234375 11.72804687 2.0265625 12.35453125 2 13 C1.34 13 0.68 13 0 13 C0 8.71 0 4.42 0 0 Z " fill="#FF9074" transform="translate(225,144)"/>
<path d="M0 0 C2.89932357 2.39509338 3.50168276 4.31245243 4 8 C4.66 8 5.32 8 6 8 C6.28875 7.05125 6.5775 6.1025 6.875 5.125 C8 2 8 2 10 0 C9.39301257 4.12751449 7.96189209 7.3321148 6 11 C5.34 11 4.68 11 4 11 C3.32880451 9.5437455 2.66318193 8.08492133 2 6.625 C1.62875 5.81289063 1.2575 5.00078125 0.875 4.1640625 C0 2 0 2 0 0 Z " fill="#8C828A" transform="translate(264,564)"/>
<path d="M0 0 C0.66 0 1.32 0 2 0 C3.06795656 5.57710648 2.82622671 10.39436958 2 16 C1.34 16 0.68 16 0 16 C0 10.72 0 5.44 0 0 Z " fill="#8F8994" transform="translate(228,520)"/>
<path d="M0 0 C2.31 0 4.62 0 7 0 C6.67 1.65 6.34 3.3 6 5 C4.35 5 2.7 5 1 5 C0.67 3.35 0.34 1.7 0 0 Z " fill="#C9CBCE" transform="translate(169,570)"/>
<path d="M0 0 C2.31 0 4.62 0 7 0 C6.67 1.65 6.34 3.3 6 5 C4.35 5 2.7 5 1 5 C0.67 3.35 0.34 1.7 0 0 Z " fill="#C9CBCE" transform="translate(429,531)"/>
<path d="M0 0 C0.33 0.99 0.66 1.98 1 3 C3.01508358 3.73323796 3.01508358 3.73323796 5 4 C4.01 4 3.02 4 2 4 C2 6.97 2 9.94 2 13 C2.99 13.33 3.98 13.66 5 14 C3.35 13.67 1.7 13.34 0 13 C0 10.03 0 7.06 0 4 C-0.66 3.67 -1.32 3.34 -2 3 C-1.34 3 -0.68 3 0 3 C0 2.01 0 1.02 0 0 Z " fill="#7D818F" transform="translate(186,522)"/>
<path d="M0 0 C0.66 0 1.32 0 2 0 C2 4.95 2 9.9 2 15 C1.01 14.67 0.02 14.34 -1 14 C-0.67 9.38 -0.34 4.76 0 0 Z " fill="#7E8DA6" transform="translate(260,521)"/>
<path d="M0 0 C0.33 0.99 0.66 1.98 1 3 C3.01508358 3.73323796 3.01508358 3.73323796 5 4 C4.01 4 3.02 4 2 4 C2 6.97 2 9.94 2 13 C2.99 13.33 3.98 13.66 5 14 C3.35 13.67 1.7 13.34 0 13 C0 10.03 0 7.06 0 4 C-0.66 3.67 -1.32 3.34 -2 3 C-1.34 3 -0.68 3 0 3 C0 2.01 0 1.02 0 0 Z " fill="#7D818F" transform="translate(844,50)"/>
<path d="M0 0 C3.08669204 3.08669204 3.44855089 3.91927658 4 8 C1.69 8 -0.62 8 -3 8 C-2.01 5.36 -1.02 2.72 0 0 Z " fill="#E5E9E4" transform="translate(593,51)"/>
<path d="M0 0 C-2.12282669 1.00460531 -4.24833021 2.00355602 -6.375 3 C-8.15003906 3.8353125 -8.15003906 3.8353125 -9.9609375 4.6875 C-13 6 -13 6 -15 6 C-13.98766962 3.23753912 -13.42954546 2.20408935 -10.72265625 0.91796875 C-9.40587891 0.55638672 -9.40587891 0.55638672 -8.0625 0.1875 C-7.18722656 -0.06644531 -6.31195313 -0.32039063 -5.41015625 -0.58203125 C-3 -1 -3 -1 0 0 Z " fill="#FF8071" transform="translate(150,43)"/>
<path d="M0 0 C2.9375 0.75 2.9375 0.75 4.9375 2.75 C5.0625 5.375 5.0625 5.375 4.9375 7.75 C4.628125 7.110625 4.31875 6.47125 4 5.8125 C3.1029837 3.81389179 3.1029837 3.81389179 1.9375 2.75 C-0.52059998 2.4999227 -0.52059998 2.4999227 -3.0625 2.75 C-5.01466435 4.70216435 -5.91076645 6.28199953 -7.0625 8.75 C-6.75 5.375 -6.75 5.375 -6.0625 1.75 C-3.0625 -0.25 -3.0625 -0.25 0 0 Z " fill="#FF7C66" transform="translate(264.0625,144.25)"/>
<path d="M0 0 C3.63 0 7.26 0 11 0 C8.8125 2.0625 8.8125 2.0625 6 4 C3.1875 3.75 3.1875 3.75 1 3 C0.67 2.01 0.34 1.02 0 0 Z " fill="#FFEDEB" transform="translate(217,59)"/>
<path d="M0 0 C2.97 0.495 2.97 0.495 6 1 C5.01 1.66 4.02 2.32 3 3 C2.42006301 5.19454681 2.42006301 5.19454681 2.3125 7.625 C2.21388672 8.85089844 2.21388672 8.85089844 2.11328125 10.1015625 C2.05720703 11.04128906 2.05720703 11.04128906 2 12 C1.34 12 0.68 12 0 12 C0 8.04 0 4.08 0 0 Z " fill="#8E8D9F" transform="translate(353,563)"/>
<path d="M0 0 C2.97 0.495 2.97 0.495 6 1 C5.01 1.66 4.02 2.32 3 3 C2.42006301 5.19454681 2.42006301 5.19454681 2.3125 7.625 C2.21388672 8.85089844 2.21388672 8.85089844 2.11328125 10.1015625 C2.05720703 11.04128906 2.05720703 11.04128906 2 12 C1.34 12 0.68 12 0 12 C0 8.04 0 4.08 0 0 Z " fill="#8E8D9F" transform="translate(332,524)"/>
<path d="M0 0 C0.66 0.66 1.32 1.32 2 2 C1.67 2.33 1.34 2.66 1 3 C0.95936168 4.66617115 0.957279 6.33388095 1 8 C1.598125 8.144375 2.19625 8.28875 2.8125 8.4375 C4.56150404 8.8872439 6.28677023 9.42892341 8 10 C1.59903382 11.32850242 1.59903382 11.32850242 -0.9375 9.9375 C-2.45334601 7.17331023 -2.32954432 5.09771665 -2 2 C-1.34 1.34 -0.68 0.68 0 0 Z " fill="#8D898E" transform="translate(803,53)"/>
<path d="M0 0 C2.875 -0.125 2.875 -0.125 6 0 C8 2 8 2 8.1953125 4.1640625 C8.17210937 4.97617187 8.14890625 5.78828125 8.125 6.625 C8.10695312 7.44226563 8.08890625 8.25953125 8.0703125 9.1015625 C8.03550781 10.04128906 8.03550781 10.04128906 8 11 C7.34 11 6.68 11 6 11 C5.67 8.36 5.34 5.72 5 3 C2.525 2.01 2.525 2.01 0 1 C0 0.67 0 0.34 0 0 Z " fill="#838D9E" transform="translate(226,564)"/>
<path d="M0 0 C1.98 0 3.96 0 6 0 C5.2884375 0.495 5.2884375 0.495 4.5625 1 C2.14208385 4.09813267 2.31801083 7.12026792 2 11 C1.34 11 0.68 11 0 11 C0 7.37 0 3.74 0 0 Z " fill="#A08C88" transform="translate(323,525)"/>
<path d="M0 0 C1.65 0 3.3 0 5 0 C5.66 1.32 6.32 2.64 7 4 C4.36 4 1.72 4 -1 4 C-0.67 2.68 -0.34 1.36 0 0 Z " fill="#FFF8FB" transform="translate(288,146)"/>
<path d="M0 0 C1.65 0 3.3 0 5 0 C5.66 1.32 6.32 2.64 7 4 C4.36 4 1.72 4 -1 4 C-0.67 2.68 -0.34 1.36 0 0 Z " fill="#FFF8FB" transform="translate(213,146)"/>
<path d="M0 0 C0.66 0 1.32 0 2 0 C2 4.29 2 8.58 2 13 C1.34 13 0.68 13 0 13 C-0.96661363 9.87819599 -0.98988909 7.47916205 -0.5625 4.25 C-0.46066406 3.45078125 -0.35882813 2.6515625 -0.25390625 1.828125 C-0.17011719 1.22484375 -0.08632812 0.6215625 0 0 Z " fill="#FF7680" transform="translate(107,144)"/>
<path d="M0 0 C2.9375 0.9375 2.9375 0.9375 4.3125 3.5 C4.51875 4.304375 4.725 5.10875 4.9375 5.9375 C4.2775 5.9375 3.6175 5.9375 2.9375 5.9375 C2.2775 4.9475 1.6175 3.9575 0.9375 2.9375 C-1.5625 2.4375 -1.5625 2.4375 -4.0625 2.9375 C-4.7225 3.9275 -5.3825 4.9175 -6.0625 5.9375 C-6.0625 4.6175 -6.0625 3.2975 -6.0625 1.9375 C-3.0625 -0.0625 -3.0625 -0.0625 0 0 Z " fill="#FF8375" transform="translate(292.0625,144.0625)"/>
<path d="M0 0 C2.9375 0.9375 2.9375 0.9375 4.3125 3.5 C4.51875 4.304375 4.725 5.10875 4.9375 5.9375 C4.2775 5.9375 3.6175 5.9375 2.9375 5.9375 C2.2775 4.9475 1.6175 3.9575 0.9375 2.9375 C-1.5625 2.4375 -1.5625 2.4375 -4.0625 2.9375 C-4.7225 3.9275 -5.3825 4.9175 -6.0625 5.9375 C-6.0625 4.6175 -6.0625 3.2975 -6.0625 1.9375 C-3.0625 -0.0625 -3.0625 -0.0625 0 0 Z " fill="#FF8375" transform="translate(217.0625,144.0625)"/>
<path d="M0 0 C1.98 0 3.96 0 6 0 C5.2884375 0.495 5.2884375 0.495 4.5625 1 C2.14208385 4.09813267 2.31801083 7.12026792 2 11 C1.34 11 0.68 11 0 11 C0 7.37 0 3.74 0 0 Z " fill="#A08C88" transform="translate(780,53)"/>
<path d="M0 0 C1.65 0 3.3 0 5 0 C5.66 1.32 6.32 2.64 7 4 C4.36 4 1.72 4 -1 4 C-0.67 2.68 -0.34 1.36 0 0 Z " fill="#FFE8E6" transform="translate(218,53)"/>
<path d="M0 0 C2.97 0.495 2.97 0.495 6 1 C6 1.99 6 2.98 6 4 C3.36 4 0.72 4 -2 4 C-1.34 2.68 -0.68 1.36 0 0 Z " fill="#E1E5E7" transform="translate(474,565)"/>
<path d="M0 0 C1.98 0 3.96 0 6 0 C4.02 0.99 4.02 0.99 2 2 C2 4.97 2 7.94 2 11 C1.34 11 0.68 11 0 11 C0 7.37 0 3.74 0 0 Z " fill="#8C8792" transform="translate(146,564)"/>
<path d="M0 0 C0.66 0.33 1.32 0.66 2 1 C1.01 2.32 0.02 3.64 -1 5 C0.98 7.97 0.98 7.97 3 11 C1.0625 10.1875 1.0625 10.1875 -1 9 C-1.33 8.01 -1.66 7.02 -2 6 C-2.99 6.33 -3.98 6.66 -5 7 C-5 6.01 -5 5.02 -5 4 C-2.5 1.8125 -2.5 1.8125 0 0 Z " fill="#858691" transform="translate(287,525)"/>
<path d="M0 0 C2.97 0.495 2.97 0.495 6 1 C6 1.99 6 2.98 6 4 C3.36 4 0.72 4 -2 4 C-1.34 2.68 -0.68 1.36 0 0 Z " fill="#E1E5E7" transform="translate(294,526)"/>
<path d="M0 0 C1.65 0.33 3.3 0.66 5 1 C5.33 1.99 5.66 2.98 6 4 C3.36 4 0.72 4 -2 4 C-1.34 2.68 -0.68 1.36 0 0 Z " fill="#E9E9E4" transform="translate(512,565)"/>
<path d="M0 0 C1.65 0.33 3.3 0.66 5 1 C5.33 1.99 5.66 2.98 6 4 C3.36 4 0.72 4 -2 4 C-1.34 2.68 -0.68 1.36 0 0 Z " fill="#E6EAE7" transform="translate(150,526)"/>
<path d="M0 0 C1.65 0.33 3.3 0.66 5 1 C5.33 1.99 5.66 2.98 6 4 C3.36 4 0.72 4 -2 4 C-1.34 2.68 -0.68 1.36 0 0 Z " fill="#E9E9E4" transform="translate(501,54)"/>
<path d="M0 0 C1.98 0.99 1.98 0.99 4 2 C3.67 2.33 3.34 2.66 3 3 C2.76924918 4.34747084 2.58846937 5.70377565 2.4375 7.0625 C2.2209375 9.0115625 2.2209375 9.0115625 2 11 C1.34 11 0.68 11 0 11 C0 7.37 0 3.74 0 0 Z " fill="#A48F8A" transform="translate(102,564)"/>
<path d="M0 0 C1.32 0.33 2.64 0.66 4 1 C3.01 1.33 2.02 1.66 1 2 C0.67 2.99 0.34 3.98 0 5 C0.99 5.33 1.98 5.66 3 6 C2.01 6 1.02 6 0 6 C0 9.3 0 12.6 0 16 C-0.33 16 -0.66 16 -1 16 C-1 12.7 -1 9.4 -1 6 C-1.66 5.67 -2.32 5.34 -3 5 C-2.34 5 -1.68 5 -1 5 C-0.67 3.35 -0.34 1.7 0 0 Z " fill="#716F71" transform="translate(127,559)"/>
<path d="M0 0 C1.98 0.99 1.98 0.99 4 2 C3.67 2.33 3.34 2.66 3 3 C2.76924918 4.34747084 2.58846937 5.70377565 2.4375 7.0625 C2.2209375 9.0115625 2.2209375 9.0115625 2 11 C1.34 11 0.68 11 0 11 C0 7.37 0 3.74 0 0 Z " fill="#A48F8A" transform="translate(968,53)"/>
<path d="M0 0 C1.98 0.99 1.98 0.99 4 2 C3.67 2.33 3.34 2.66 3 3 C2.76924918 4.34747084 2.58846937 5.70377565 2.4375 7.0625 C2.2209375 9.0115625 2.2209375 9.0115625 2 11 C1.34 11 0.68 11 0 11 C0 7.37 0 3.74 0 0 Z " fill="#A48F8A" transform="translate(475,53)"/>
<path d="M0 0 C0.28875 0.61875 0.5775 1.2375 0.875 1.875 C2.55700919 5.05212846 3.70938306 5.8953779 7.125 7.125 C8.07375 7.41375 9.0225 7.7025 10 8 C10 8.33 10 8.66 10 9 C6.42236811 9.32523926 4.60457419 9.42956587 1.625 7.3125 C-0.27258004 4.61209763 -0.35882213 3.22939919 0 0 Z " fill="#FF907B" transform="translate(329,148)"/>
<path d="M0 0 C1.98 0 3.96 0 6 0 C5.34 1.32 4.68 2.64 4 4 C2.35 3.67 0.7 3.34 -1 3 C-0.67 2.01 -0.34 1.02 0 0 Z " fill="#EFF0EF" transform="translate(278,570)"/>
<path d="M0 0 C0.33 0.99 0.66 1.98 1 3 C1.99 3.33 2.98 3.66 4 4 C3.01 4 2.02 4 1 4 C1.103125 5.27875 1.20625 6.5575 1.3125 7.875 C1.37050781 8.59429688 1.42851562 9.31359375 1.48828125 10.0546875 C1.87393036 12.39519216 1.87393036 12.39519216 5 14 C3.35 13.67 1.7 13.34 0 13 C0 10.03 0 7.06 0 4 C-0.66 3.67 -1.32 3.34 -2 3 C-1.34 3 -0.68 3 0 3 C0 2.01 0 1.02 0 0 Z " fill="#726F71" transform="translate(290,561)"/>
<path d="M0 0 C1.98 0 3.96 0 6 0 C5.34 1.32 4.68 2.64 4 4 C2.35 3.67 0.7 3.34 -1 3 C-0.67 2.01 -0.34 1.02 0 0 Z " fill="#EFF0EF" transform="translate(359,531)"/>
<path d="M0 0 C1.98 0 3.96 0 6 0 C5.34 1.32 4.68 2.64 4 4 C2.35 3.67 0.7 3.34 -1 3 C-0.67 2.01 -0.34 1.02 0 0 Z " fill="#EFF0EF" transform="translate(312,531)"/>
<path d="M0 0 C0.33 0 0.66 0 1 0 C1.185625 0.94875 1.37125 1.8975 1.5625 2.875 C2.73400805 6.38371699 2.73400805 6.38371699 6.625 7.375 C7.73875 7.58125 8.8525 7.7875 10 8 C8.3125 9.125 8.3125 9.125 6 10 C1.7 8.7 1.7 8.7 0 7 C-0.04092937 4.66702567 -0.04241723 2.33294775 0 0 Z " fill="#FF8380" transform="translate(77,147)"/>
<path d="M0 0 C0.33 0.99 0.66 1.98 1 3 C1.99 3.33 2.98 3.66 4 4 C3.01 4 2.02 4 1 4 C1.103125 5.27875 1.20625 6.5575 1.3125 7.875 C1.37050781 8.59429687 1.42851563 9.31359375 1.48828125 10.0546875 C1.87393036 12.39519216 1.87393036 12.39519216 5 14 C3.35 13.67 1.7 13.34 0 13 C0 10.03 0 7.06 0 4 C-0.66 3.67 -1.32 3.34 -2 3 C-1.34 3 -0.68 3 0 3 C0 2.01 0 1.02 0 0 Z " fill="#726F71" transform="translate(647,50)"/>
<path d="M0 0 C5.875 0.875 5.875 0.875 7 2 C7.07226502 3.85287502 7.0838122 5.70833878 7.0625 7.5625 C7.05347656 8.57441406 7.04445312 9.58632812 7.03515625 10.62890625 C7.02355469 11.41136719 7.01195312 12.19382813 7 13 C6.67 13 6.34 13 6 13 C5.98582031 12.39671875 5.97164062 11.7934375 5.95703125 11.171875 C5.68721054 5.71123416 5.68721054 5.71123416 2.4375 1.4375 C1.633125 0.963125 0.82875 0.48875 0 0 Z " fill="#FF7567" transform="translate(199,144)"/>
<path d="M0 0 C1.98 0 3.96 0 6 0 C5.34 1.32 4.68 2.64 4 4 C2.68 3.67 1.36 3.34 0 3 C0 2.01 0 1.02 0 0 Z " fill="#F8FBF6" transform="translate(422,570)"/>
<path d="M0 0 C0.66 0 1.32 0 2 0 C1.67 2.97 1.34 5.94 1 9 C0.01 8.67 -0.98 8.34 -2 8 C-2.125 5.125 -2.125 5.125 -2 2 C-1.34 1.34 -0.68 0.68 0 0 Z " fill="#958F96" transform="translate(305,564)"/>
<path d="M0 0 C0.66 0 1.32 0 2 0 C1.67 2.97 1.34 5.94 1 9 C0.01 8.67 -0.98 8.34 -2 8 C-2.125 5.125 -2.125 5.125 -2 2 C-1.34 1.34 -0.68 0.68 0 0 Z " fill="#958F96" transform="translate(253,564)"/>
<path d="M0 0 C0.66 0 1.32 0 2 0 C1.67 2.97 1.34 5.94 1 9 C0.01 8.67 -0.98 8.34 -2 8 C-2.125 5.125 -2.125 5.125 -2 2 C-1.34 1.34 -0.68 0.68 0 0 Z " fill="#958F96" transform="translate(124,525)"/>
<path d="M0 0 C1.98 0 3.96 0 6 0 C5.34 1.32 4.68 2.64 4 4 C2.68 3.67 1.36 3.34 0 3 C0 2.01 0 1.02 0 0 Z " fill="#F8FBF6" transform="translate(993,59)"/>
<path d="M0 0 C2.64 0 5.28 0 8 0 C7 2 7 2 4.5625 3.1875 C2 4 2 4 0 3 C0 2.01 0 1.02 0 0 Z " fill="#FF8983" transform="translate(160,144)"/>
</svg>
